<svg width="72" height="48" viewBox="0 0 72 48" fill="none" xmlns="http://www.w3.org/2000/svg">
<path d="M31.4463 25.7621H29.2286V24.89C29.2286 23.7558 29.8753 23.4313 30.4332 23.4313C31.0486 23.4313 31.5282 23.705 31.5282 23.705L32.2831 21.9759C32.2831 21.9759 31.5177 21.4746 30.1265 21.4746C28.5624 21.4746 26.7827 22.3582 26.7827 25.1315V25.7621H23.0701V24.89C23.0701 23.7558 23.7167 23.4313 24.2734 23.4313C24.5904 23.4313 25.0169 23.5052 25.3696 23.705L26.1245 21.9759C25.6739 21.7102 24.95 21.4746 23.968 21.4746C22.4038 21.4746 20.6242 22.3582 20.6242 25.1315V25.7621H19.2041V27.6541H20.6242V34.3384H23.0701V27.6541H26.7827V34.3384H29.2286V27.6541H31.4463V25.7621Z" fill="#181B1D"/>
<path fill-rule="evenodd" clip-rule="evenodd" d="M14.4389 25.5101C13.0292 25.5101 11.4063 26.1766 10.5256 26.88L11.3302 28.5768C12.0368 27.9288 13.1791 27.3755 14.2095 27.3755C15.1881 27.3755 15.7287 27.7036 15.7287 28.3631C15.7287 28.8089 15.3702 29.033 14.6925 29.1208C12.1636 29.4512 10.1787 30.1499 10.1787 32.1043C10.1787 33.6532 11.2795 34.5911 12.9993 34.5911C14.2256 34.5911 15.3183 33.9073 15.8382 33.0052V34.3382H18.1251V28.7535C18.1251 26.4469 16.5252 25.5101 14.4389 25.5101ZM13.5882 32.7997C12.9451 32.7997 12.6246 32.4832 12.6246 31.9599C12.6246 30.992 13.7058 30.6605 15.6792 30.4514C15.6792 31.7462 14.8055 32.7997 13.5882 32.7997Z" fill="#181B1D"/>
<path d="M37.4043 25.7621V34.3384H39.8525V30.2068C39.8525 28.2421 41.0386 27.6657 41.8662 27.6657C42.1889 27.6657 42.6246 27.7592 42.9128 27.9752L43.3588 25.7079C42.9808 25.5462 42.5854 25.5104 42.2616 25.5104C41.0029 25.5104 40.2121 26.0694 39.69 27.2036V25.7621H37.4043Z" fill="#181B1D"/>
<path d="M51.9416 27.0168C52.4453 26.2775 53.4124 25.5106 54.7068 25.5106C56.2709 25.5106 57.5654 26.4832 57.5654 28.4109V34.3386H55.1195V29.186C55.1195 28.0505 54.4371 27.5793 53.7905 27.5793C52.9813 27.5793 52.1722 28.3208 52.1722 29.924V34.3386H49.7262V29.2033C49.7262 28.0332 49.0831 27.5793 48.3834 27.5793C47.61 27.5793 46.7824 28.3381 46.7824 29.924V34.3386H44.333V25.7624H46.6925V27.0595C47.1063 26.2313 48.0019 25.5106 49.2963 25.5106C50.4824 25.5106 51.4737 26.0615 51.9416 27.0168Z" fill="#181B1D"/>
<path d="M35.3499 34.3387H32.9062V25.7625H35.3499V34.3387Z" fill="#181B1D"/>
<path fill-rule="evenodd" clip-rule="evenodd" d="M47.1623 13.8C40.5553 13.8 34.6664 18.396 32.9951 24.3052H35.3903C36.7861 19.9044 41.5246 16.042 47.1623 16.042C54.0147 16.042 59.9373 21.2697 59.9373 29.4082C59.9373 31.2354 59.7007 32.8826 59.2535 34.3379H61.5773L61.6 34.2582C61.9808 32.7567 62.1742 31.1257 62.1742 29.4082C62.1742 20.3318 55.5743 13.8 47.1623 13.8Z" fill="#181B1D"/>
</svg>
