<svg width="144" height="48" viewBox="0 0 144 48" fill="none" xmlns="http://www.w3.org/2000/svg">
<path d="M62.3284 24.6384L60.6428 20.085C60.5743 19.8988 60.3113 19.8988 60.2423 20.085L58.5567 24.6387C58.5448 24.671 58.5409 24.7058 58.5452 24.74C58.5495 24.7743 58.5625 24.807 58.5821 24.8353C58.6018 24.8636 58.6276 24.8868 58.6583 24.9028C58.6889 24.9187 58.7229 24.9271 58.7574 24.927H62.1282C62.1627 24.927 62.1967 24.9187 62.2273 24.9027C62.2575 24.8867 62.2838 24.8635 62.3035 24.8352C62.3231 24.8069 62.3356 24.7742 62.3399 24.7399C62.3442 24.7057 62.3404 24.6707 62.3284 24.6384ZM63.1072 27.1978H57.7784C57.7348 27.1978 57.6921 27.2111 57.6567 27.2361C57.6208 27.261 57.5935 27.2964 57.5781 27.3373L56.5291 30.1706C56.5138 30.2115 56.4865 30.2468 56.4506 30.2718C56.4151 30.2968 56.3725 30.3101 56.3289 30.3101H54.0191C53.9842 30.3101 53.9497 30.3015 53.919 30.2851C53.8884 30.2687 53.862 30.245 53.8424 30.216C53.8228 30.187 53.8103 30.1537 53.8069 30.1189C53.8031 30.0841 53.8079 30.0489 53.8208 30.0164L59.1387 16.7419C59.1545 16.7022 59.1818 16.6683 59.2173 16.6444C59.2527 16.6205 59.2944 16.6077 59.337 16.6077H61.5486C61.6358 16.6077 61.7143 16.6608 61.7469 16.7419L67.0643 30.0163C67.0772 30.0488 67.082 30.084 67.0787 30.1188C67.0748 30.1536 67.0624 30.187 67.0432 30.2161C67.0236 30.2451 66.9972 30.2688 66.9661 30.2852C66.9354 30.3017 66.9009 30.3103 66.866 30.3102H64.5567C64.5131 30.3102 64.4705 30.2969 64.4346 30.2719C64.3991 30.2469 64.3718 30.2116 64.3565 30.1706L63.307 27.3373C63.2921 27.2964 63.2648 27.261 63.2289 27.2361C63.193 27.2111 63.1508 27.1978 63.1072 27.1978ZM68.1464 21.2664H70.1218C70.1783 21.2664 70.2329 21.289 70.2726 21.3291C70.3129 21.3693 70.3354 21.4237 70.3354 21.4805V30.0961C70.3354 30.1529 70.3129 30.2073 70.2726 30.2474C70.2329 30.2875 70.1783 30.3101 70.1218 30.3101H68.1464C68.0898 30.3101 68.0352 30.2875 67.9955 30.2474C67.9552 30.2073 67.9327 30.1529 67.9327 30.0961V21.4804C67.9327 21.4236 67.9552 21.3691 67.9955 21.329C68.0352 21.2888 68.0898 21.2664 68.1464 21.2664ZM77.5401 23.3622C77.5401 23.4189 77.5175 23.4734 77.4773 23.5135C77.4376 23.5537 77.383 23.5762 77.3264 23.5762H77.2666C76.2899 23.5762 75.5733 23.8111 75.1177 24.2809C74.6617 24.7507 74.4342 25.5273 74.4342 26.6104V30.0961C74.4342 30.1529 74.4117 30.2073 74.3715 30.2474C74.3317 30.2875 74.2771 30.3101 74.2206 30.3101H72.2643C72.2078 30.3101 72.1537 30.2875 72.1134 30.2474C72.0732 30.2073 72.0507 30.1529 72.0507 30.0961V21.4804C72.0507 21.4236 72.0732 21.3691 72.1134 21.329C72.1537 21.2888 72.2078 21.2663 72.2643 21.2663H74.2009C74.2575 21.2663 74.3121 21.2888 74.3518 21.329C74.3921 21.3691 74.4146 21.4236 74.4146 21.4804V23.1845H74.4539C74.6881 22.4799 75.0593 21.9386 75.5675 21.5598C76.0748 21.1815 76.7004 20.9921 77.4423 20.9921H77.5401V23.3622ZM82.9418 23.2826C82.8848 23.2826 82.8306 23.3051 82.7904 23.3453C82.7507 23.3854 82.7281 23.4398 82.7281 23.4966V27.0802C82.7281 27.4457 82.799 27.7066 82.9427 27.8632C83.0859 28.0197 83.3336 28.0981 83.6852 28.0981H83.8816C83.9381 28.0981 83.9927 28.1206 84.0325 28.1608C84.0727 28.2009 84.0952 28.2554 84.0952 28.3121V30.1155C84.0952 30.1722 84.0727 30.2267 84.0325 30.2669C83.9927 30.307 83.9381 30.3295 83.8816 30.3295H83.0404C82.1677 30.3295 81.4971 30.1045 81.0282 29.6542C80.5592 29.204 80.325 28.5354 80.325 27.6478V23.4966C80.325 23.4398 80.3025 23.3854 80.2622 23.3453C80.2225 23.3051 80.1679 23.2826 80.1113 23.2826H78.8784C78.8219 23.2826 78.7673 23.26 78.727 23.2199C78.6873 23.1797 78.6648 23.1253 78.6648 23.0685V21.4804C78.6648 21.4236 78.6873 21.3691 78.727 21.329C78.7673 21.2888 78.8219 21.2663 78.8784 21.2663H80.1113C80.1683 21.2663 80.2225 21.2438 80.2627 21.2036C80.3025 21.1635 80.325 21.109 80.325 21.0522V17.8589C80.325 17.8022 80.3475 17.7477 80.3877 17.7076C80.428 17.6675 80.4821 17.6449 80.5386 17.6449H82.514C82.571 17.6449 82.6252 17.6675 82.6654 17.7076C82.7051 17.7477 82.7277 17.8022 82.7277 17.8589V21.0522C82.7277 21.109 82.7502 21.1635 82.7904 21.2036C82.8306 21.2438 82.8848 21.2663 82.9413 21.2663H84.3701C84.4267 21.2663 84.4808 21.2888 84.521 21.329C84.5613 21.3691 84.5838 21.4236 84.5838 21.4804V23.0686C84.5838 23.1254 84.5613 23.1798 84.521 23.22C84.4808 23.2601 84.4267 23.2827 84.3701 23.2827L82.9418 23.2826ZM91.9872 27.6283C92.4366 27.1585 92.6612 26.5452 92.6612 25.7881C92.6612 25.0315 92.4366 24.4179 91.9872 23.9481C91.5379 23.4784 90.9488 23.2434 90.2192 23.2434C89.4902 23.2434 88.901 23.4784 88.4517 23.9481C88.0024 24.4179 87.7778 25.0315 87.7778 25.7881C87.7778 26.5452 88.0024 27.1585 88.4517 27.6283C88.901 28.0981 89.4902 28.333 90.2192 28.333C90.9488 28.333 91.5379 28.0981 91.9872 27.6283ZM87.4262 30.036C86.7618 29.6577 86.2378 29.1061 85.8536 28.3819C85.4695 27.6577 85.2774 26.7932 85.2774 25.7881C85.2774 24.7835 85.4695 23.9187 85.8536 23.1945C86.2378 22.4703 86.7618 21.9192 87.4262 21.5404C88.0906 21.162 88.8196 20.9728 89.6138 20.9728C90.317 20.9728 90.9195 21.1097 91.4211 21.3837C91.9221 21.6577 92.3225 22.0429 92.6224 22.5388H92.6612V21.4804C92.6612 21.4236 92.6837 21.3691 92.7239 21.329C92.7637 21.2888 92.8183 21.2663 92.8748 21.2663H94.8311C94.8876 21.2663 94.9417 21.2888 94.982 21.329C95.0222 21.3691 95.0447 21.4236 95.0447 21.4804V30.0959C95.0447 30.1527 95.0222 30.2071 94.982 30.2473C94.9417 30.2874 94.8876 30.31 94.8311 30.31H92.8748C92.8183 30.31 92.7637 30.2874 92.7239 30.2473C92.6837 30.2071 92.6612 30.1527 92.6612 30.0959V29.0376H92.6224C92.3225 29.5338 91.9221 29.9185 91.4211 30.1925C90.9195 30.4665 90.3174 30.6035 89.6138 30.6035C88.8196 30.6035 88.0906 30.4143 87.4262 30.036ZM103.179 27.6283C103.628 27.1585 103.853 26.5452 103.853 25.7881C103.853 25.0315 103.628 24.4179 103.179 23.9481C102.73 23.4784 102.141 23.2434 101.412 23.2434C100.682 23.2434 100.093 23.4784 99.6436 23.9481C99.1943 24.4179 98.9697 25.0315 98.9697 25.7881C98.9697 26.5452 99.1943 27.1585 99.6436 27.6283C100.093 28.0981 100.682 28.333 101.412 28.333C102.141 28.333 102.73 28.0981 103.179 27.6283ZM100.21 30.1925C99.7088 29.9185 99.3078 29.5338 99.0085 29.0376H98.9697V30.0959C98.9697 30.1527 98.9471 30.2071 98.9069 30.2473C98.8667 30.2874 98.8125 30.31 98.756 30.31H96.7806C96.7236 30.31 96.6695 30.2874 96.6293 30.2473C96.5895 30.2071 96.567 30.1527 96.567 30.0959V16.8214C96.567 16.7646 96.5895 16.7102 96.6293 16.67C96.6695 16.6299 96.7236 16.6073 96.7806 16.6073H98.756C98.8125 16.6073 98.8667 16.6299 98.9069 16.67C98.9471 16.7102 98.9697 16.7646 98.9697 16.8214V22.5387H99.0085C99.3078 22.0427 99.7088 21.6577 100.21 21.3837C100.711 21.1096 101.314 20.9726 102.017 20.9726C102.811 20.9726 103.541 21.1618 104.205 21.5403C104.869 21.919 105.393 22.4701 105.777 23.1942C106.161 23.9189 106.354 24.7837 106.354 25.7883C106.354 26.7933 106.161 27.6577 105.777 28.382C105.393 29.1063 104.869 29.6578 104.205 30.036C103.541 30.4145 102.811 30.6038 102.017 30.6038C101.314 30.6038 100.711 30.4667 100.21 30.1925ZM109.682 30.3101H107.707C107.65 30.3101 107.596 30.2875 107.556 30.2474C107.516 30.2073 107.493 30.1529 107.493 30.0961V16.8218C107.493 16.765 107.516 16.7106 107.556 16.6704C107.596 16.6303 107.65 16.6077 107.707 16.6077H109.682C109.739 16.6077 109.793 16.6303 109.833 16.6704C109.873 16.7106 109.896 16.765 109.896 16.8218V30.0961C109.896 30.1529 109.873 30.2073 109.833 30.2474C109.793 30.2875 109.739 30.3101 109.682 30.3101ZM114.342 23.361C114.015 23.617 113.793 23.9866 113.679 24.4701C113.647 24.6034 113.751 24.7313 113.888 24.7313H117.647C117.778 24.7313 117.88 24.6143 117.859 24.4853C117.784 24.0279 117.588 23.6633 117.272 23.3904C116.901 23.0708 116.416 22.9109 115.817 22.9109C115.217 22.9109 114.726 23.0609 114.342 23.361ZM119.157 22.2354C119.926 23.0774 120.31 24.2682 120.31 25.8078V26.0635C120.31 26.1203 120.287 26.1748 120.247 26.2149C120.207 26.2551 120.153 26.2776 120.096 26.2776H113.815C113.784 26.2777 113.753 26.2846 113.725 26.2978C113.697 26.3111 113.671 26.3304 113.651 26.3544C113.631 26.3784 113.617 26.4065 113.608 26.4368C113.6 26.467 113.598 26.4987 113.604 26.5296C113.704 27.1016 113.957 27.556 114.361 27.8926C114.824 28.2779 115.407 28.4701 116.11 28.4701C117.017 28.4701 117.858 28.1151 118.631 27.4048C118.725 27.3181 118.875 27.3365 118.948 27.4419L119.908 28.8233C119.938 28.8663 119.952 28.9188 119.946 28.9709C119.94 29.0231 119.915 29.0712 119.876 29.1061C119.404 29.5196 118.88 29.8685 118.317 30.1437C117.692 30.4503 116.956 30.6038 116.11 30.6038C115.133 30.6038 114.28 30.4046 113.551 30.0067C112.821 29.6089 112.255 29.0477 111.851 28.3232C111.448 27.5991 111.246 26.7606 111.246 25.8078C111.246 24.8554 111.441 24.0137 111.832 23.2827C112.222 22.5521 112.769 21.9844 113.473 21.5797C114.176 21.1754 114.996 20.9729 115.934 20.9729C117.314 20.9729 118.388 21.3939 119.157 22.2354ZM70.5936 18.0813C70.5936 18.8887 69.9402 19.5433 69.1345 19.5433C68.3284 19.5433 67.675 18.8887 67.675 18.0811C67.675 17.2736 68.3284 16.619 69.1345 16.619C69.9402 16.619 70.5936 17.2737 70.5936 18.0813Z" fill="#181B1D"/>
<path d="M34.7213 12.7466L25.3281 16.6414C24.8058 16.8581 24.8112 17.6017 25.3368 17.8105L34.7692 21.5587C35.5979 21.8881 36.5208 21.8881 37.3496 21.5587L46.7821 17.8103C47.3075 17.6017 47.3132 16.8582 46.7906 16.6416L37.3977 12.7465C36.5407 12.3911 35.5782 12.3913 34.7213 12.7466Z" fill="#181B1D"/>
<path d="M36.8965 23.6052V32.969C36.8965 33.4142 37.3446 33.7193 37.7578 33.5552L48.2683 29.467C48.3857 29.4205 48.4863 29.3397 48.5567 29.2352C48.6276 29.1307 48.6654 29.0072 48.6654 28.8808V19.5172C48.6654 19.0718 48.2176 18.7669 47.8043 18.931L37.2938 23.0192C37.1766 23.0657 37.0761 23.1465 37.0052 23.251C36.9344 23.3556 36.8965 23.4789 36.8965 23.6052Z" fill="#181B1D"/>
<path d="M34.4415 24.0881L31.3222 25.5974L31.0055 25.7508L24.4209 28.9123C24.0036 29.1141 23.4707 28.8093 23.4707 28.3447V19.5561C23.4707 19.388 23.5567 19.2429 23.6721 19.1337C23.7194 19.0865 23.7731 19.0462 23.8316 19.0139C23.9888 18.9193 24.2132 18.894 24.404 18.9696L34.3891 22.9342C34.8966 23.136 34.9365 23.8485 34.4415 24.0881Z" fill="#181B1D"/>
<path d="M34.4423 24.0881L31.3229 25.5974L23.6729 19.1336C23.7202 19.0865 23.7739 19.0461 23.8324 19.0139C23.9896 18.9193 24.214 18.894 24.4048 18.9696L34.3899 22.9342C34.8974 23.136 34.9373 23.8485 34.4423 24.0881Z" fill="#181B1D"/>
</svg>
