<svg width="144" height="48" viewBox="0 0 144 48" fill="none" xmlns="http://www.w3.org/2000/svg">
<path d="M45.8213 29.8815V13.9922H55.1932V15.9843H47.7619V20.8697H54.4359V22.8617H47.7619V27.842H55.7139V29.8341H45.8213V29.8815Z" fill="#181B1D"/>
<path d="M65.5591 29.8814L62.3407 25.6601L59.1218 29.8814H56.8499L61.2519 24.2372L56.6133 18.4032H59.1692L62.3407 22.7668L65.5591 18.4032H68.0681L63.6661 24.2372L67.831 29.8814H65.5591Z" fill="#181B1D"/>
<path d="M70.9546 28.174V36.0001H69.0137V24.2847C69.0137 21.2965 71.2856 18.1187 74.8355 18.1187C78.4328 18.1187 81.131 20.3953 81.131 24.1424C81.131 27.7945 78.3858 30.3084 75.2618 30.3084C73.7472 30.3084 71.7119 29.6444 70.9546 28.174ZM79.0957 24.1424C79.0957 21.5811 77.4388 20.0633 74.5045 20.2056C73.0842 20.253 70.9072 21.2965 71.0964 24.9487C71.1438 26.1345 72.3744 28.3637 75.0721 28.3637C77.3914 28.3637 79.0957 27.0357 79.0957 24.1424Z" fill="#181B1D"/>
<path d="M82.7891 18.4032H84.7295V19.6364C85.6765 18.5455 87.1437 18.166 88.7057 18.166V20.253C88.4691 20.2056 86.1497 19.921 84.7295 22.9566V29.9289H82.7891V18.4032Z" fill="#181B1D"/>
<path d="M89.2256 24.1425C89.2256 20.8223 91.5919 18.1188 94.8582 18.1188C98.9287 18.1188 100.443 20.8223 100.443 24.2848V25.2334H91.3552C91.4975 27.4152 93.4379 28.5535 95.2366 28.5061C96.562 28.4587 97.4615 28.0793 98.4081 27.1306L99.686 28.4587C98.5024 29.597 96.9878 30.3559 95.1422 30.3559C91.6867 30.3085 89.2256 27.7472 89.2256 24.1425ZM94.7159 20.0634C92.8698 20.0634 91.4501 21.6761 91.3552 23.431H98.4081C98.4081 21.7235 97.1775 20.0634 94.7159 20.0634Z" fill="#181B1D"/>
<path d="M101.438 28.2688L102.857 26.9882C102.81 26.9882 103.568 27.7471 103.662 27.7945C103.993 28.0791 104.325 28.2688 104.751 28.3637C105.981 28.6957 108.206 28.6008 108.395 26.8933C108.49 25.9447 107.78 25.423 106.975 25.0909C105.934 24.7115 104.798 24.5692 103.757 24.0949C102.573 23.5732 101.816 22.672 101.816 21.3439C101.816 17.8814 106.739 17.3123 108.964 18.9249C109.058 19.0198 110.147 20.0158 110.099 20.0158L108.68 21.1542C107.969 20.3004 107.307 19.8735 105.792 19.8735C105.035 19.8735 103.993 20.2055 103.804 21.0119C103.52 22.1502 104.798 22.5771 105.65 22.8142C106.786 23.0988 108.017 23.2886 109.011 23.9051C110.383 24.7589 110.715 26.6087 110.194 28.0317C109.626 29.5968 107.922 30.2134 106.407 30.2609C104.608 30.3558 103.047 29.7866 101.769 28.5059C101.674 28.5059 101.438 28.2688 101.438 28.2688Z" fill="#181B1D"/>
<path d="M111.425 28.2689L112.845 26.9883C112.798 26.9883 113.555 27.7472 113.65 27.7946C113.981 28.0792 114.312 28.2689 114.739 28.3638C115.969 28.6958 118.194 28.6009 118.383 26.8934C118.478 25.9448 117.768 25.4231 116.963 25.0911C115.922 24.7116 114.785 24.5693 113.744 24.095C112.561 23.5733 111.804 22.6721 111.804 21.344C111.804 17.8816 116.726 17.3124 118.951 18.925C119.046 19.0199 120.134 20.0159 120.087 20.0159L118.667 21.1543C117.957 20.3005 117.294 19.8737 115.78 19.8737C115.022 19.8737 113.981 20.2057 113.792 21.012C113.508 22.1504 114.785 22.5772 115.638 22.8144C116.774 23.099 118.004 23.2887 118.998 23.9053C120.371 24.7591 120.702 26.6088 120.181 28.0318C119.614 29.597 117.91 30.2136 116.395 30.261C114.596 30.3559 113.034 29.7867 111.756 28.5061C111.662 28.5061 111.425 28.2689 111.425 28.2689Z" fill="#181B1D"/>
<path d="M120.654 18.4032V17.17H120.228V16.9329H121.363V17.17H120.937V18.4032H120.654Z" fill="#181B1D"/>
<path d="M122.783 18.4032V17.2649L122.357 18.4032H122.263L121.836 17.2649V18.4032H121.6V16.9329H121.979L122.357 17.9289L122.736 16.9329H123.114V18.4032H122.783Z" fill="#181B1D"/>
<path d="M32.6614 29.8814L31.2414 26.0869H23.5734L22.1535 29.8814H20.1182L26.2714 13.9921H28.4961L34.602 29.8814H32.6614ZM27.3128 16.2688L24.4254 24.1422H30.4367L27.3128 16.2688Z" fill="#181B1D"/>
<path d="M35.8799 29.8815V13.9922H37.8679V29.8815H35.8799Z" fill="#181B1D"/>
<path d="M40.8506 29.8815V18.6404H42.8386V29.8815H40.8506Z" fill="#181B1D"/>
<path d="M44.7316 14.9881C44.7316 14.9407 44.7316 14.9407 44.7316 14.8933C44.7316 14.8458 44.7316 14.8458 44.7316 14.7984C43.2169 14.751 41.9863 13.5178 41.9389 12C41.8916 12 41.8442 12 41.7969 12C41.7496 12 41.7023 12 41.6549 12C41.6076 13.5178 40.377 14.751 38.8623 14.7984C38.8623 14.8458 38.8623 14.8458 38.8623 14.8933C38.8623 14.9407 38.8623 14.9407 38.8623 14.9881C40.377 15.0356 41.6076 16.2688 41.6549 17.7865C41.7023 17.7865 41.7496 17.7865 41.7969 17.7865C41.8442 17.7865 41.8916 17.7865 41.9389 17.7865C41.9863 16.2688 43.2169 15.0356 44.7316 14.9881Z" fill="#181B1D"/>
</svg>
