<svg width="72" height="48" viewBox="0 0 72 48" fill="none" xmlns="http://www.w3.org/2000/svg">
<g clip-path="url(#clip0_82_11298)">
<path d="M63.8991 20.7015L63.9123 20.6869H61.8159L60.4917 25.2762H60.4215L58.9016 20.6869H56.4102L59.4079 28.2606L58.1555 30.5693V30.6249H60.1113L63.8991 20.7015Z" fill="#181B1D"/>
<path d="M40.6563 20.6869H38.4326V28.2328H40.6563V20.6869Z" fill="#181B1D"/>
<path d="M55.9729 26.3457V23.1929C55.9729 21.4754 54.9591 20.5319 53.1714 20.5319C52.0303 20.5319 51.2431 20.7293 49.8066 21.1653L50.2002 22.8974C51.5095 22.3064 52.086 22.0532 52.6917 22.0532C53.4232 22.0532 53.7479 22.574 53.7479 23.3771V23.4328C51.1995 23.9112 50.4109 24.1789 49.9192 24.6719C49.5535 25.0377 49.3984 25.5585 49.3984 26.1641C49.3984 27.614 50.5249 28.3879 51.5798 28.3879C52.3683 28.3879 53.0017 28.0923 53.8605 27.4443L54.0156 28.2328H56.2393L55.9729 26.3457ZM53.7492 26.4027C53.1582 26.726 52.8202 26.8533 52.4266 26.8533C51.8912 26.8533 51.5533 26.5007 51.5533 25.9388C51.5533 25.7281 51.5957 25.5161 51.764 25.3478C52.0317 25.0801 52.5525 24.8826 53.7492 24.6017V26.4027Z" fill="#181B1D"/>
<path d="M46.1897 20.5319C45.3734 20.5319 44.7399 20.8419 44.0216 21.433V20.6869H41.7979V30.6249H44.0216V28.1613C44.4444 28.2739 44.838 28.3309 45.3164 28.3309C47.3016 28.3309 49.0893 26.8665 49.0893 24.2624C49.0893 21.926 47.7946 20.5319 46.1897 20.5319ZM44.781 26.9367C44.5278 26.9367 44.288 26.9089 44.0203 26.8241V22.7424C44.4855 22.419 44.8645 22.2639 45.3429 22.2639C46.1738 22.2639 46.8351 22.9253 46.8351 24.3339C46.8365 26.135 45.8651 26.9367 44.781 26.9367Z" fill="#181B1D"/>
<path d="M19.5825 16.8H10.0474C8.80564 16.8 7.7998 17.8152 7.7998 19.0662V28.6821C7.7998 29.9332 8.80564 30.9483 10.0474 30.9483H19.5825C20.8242 30.9483 21.8288 29.9332 21.8288 28.6821V19.0662C21.8301 17.8139 20.8242 16.8 19.5825 16.8Z" fill="#181B1D"/>
<path d="M19.3508 25.6844C18.7902 25.495 18.0362 25.2047 17.1973 24.8986C17.7009 24.0146 18.1038 23.0088 18.3688 21.9155H15.603V20.911H18.9904V20.3504H15.603V18.6753H14.2208C13.9783 18.6753 13.9783 18.9164 13.9783 18.9164V20.3491H10.5525V20.9096H13.9783V21.9142H11.1489V22.4747H16.6354C16.4353 23.1718 16.1649 23.8278 15.8455 24.4228C14.0658 23.8304 12.1654 23.3507 10.9726 23.6462C10.2093 23.8358 9.71762 24.1737 9.42872 24.5288C8.1035 26.1549 9.05372 28.6252 11.8526 28.6252C13.5078 28.6252 15.1021 27.6949 16.3372 26.1616C18.1806 27.0548 21.829 28.5894 21.829 28.5894V26.4028C21.8304 26.4028 21.3718 26.3656 19.3508 25.6844ZM11.5915 27.6803C9.40886 27.6803 8.7635 25.9469 9.84224 24.998C10.2027 24.6773 10.86 24.5209 11.2099 24.4864C12.5059 24.3579 13.7066 24.8562 15.1233 25.5533C14.128 26.8626 12.8598 27.6803 11.5915 27.6803Z" fill="#181B1D"/>
<path d="M30.7889 18.3081H27.8044L24.4688 28.2328H26.5242L27.0875 26.29H30.6206L31.1559 28.2328H33.7879L30.7889 18.3081ZM27.5513 24.6706L28.8739 20.0959H28.9295L30.1819 24.6706H27.5513Z" fill="#181B1D"/>
<path d="M36.9113 17.9556H34.6875V28.2315H36.9113V17.9556Z" fill="#181B1D"/>
<path d="M38.2637 18.8713C38.2637 19.6029 38.799 20.0959 39.5451 20.0959C40.2912 20.0959 40.8266 19.6029 40.8266 18.8713C40.8266 18.1531 40.2912 17.6469 39.5451 17.6469C38.799 17.6469 38.2637 18.1531 38.2637 18.8713Z" fill="#181B1D"/>
</g>
<defs>
<clipPath id="clip0_82_11298">
<rect width="71.8503" height="48" fill="white"/>
</clipPath>
</defs>
</svg>
