<svg width="72" height="48" viewBox="0 0 72 48" fill="none" xmlns="http://www.w3.org/2000/svg">
<path d="M39.541 24.885C39.4228 24.8786 39.3297 24.7795 39.3281 24.6584V18.3399C39.3408 18.2199 39.4412 18.13 39.5591 18.1329H40.6748C40.7764 18.1363 40.8634 18.2084 40.8877 18.3094V19.2757H40.9111C41.2475 18.4118 41.7191 18 42.5494 18C43.0881 18 43.614 18.1994 43.9536 18.7441C44.2676 19.2496 44.2676 20.1004 44.2676 20.7115V24.6867C44.2501 24.8027 44.1513 24.8874 44.0366 24.885H42.8273C42.7188 24.8802 42.6292 24.7967 42.6144 24.6867V21.2562C42.6144 21.2024 42.6149 21.1468 42.6153 21.0898C42.6211 20.4143 42.6285 19.5545 41.8618 19.5545C41.553 19.5692 41.281 19.7667 41.1655 20.06C40.9973 20.4457 40.975 20.8313 40.975 21.2584V24.6584C40.9704 24.7866 40.8661 24.8874 40.7408 24.885H39.541Z" fill="#181B1D"/>
<path fill-rule="evenodd" clip-rule="evenodd" d="M35.662 18.0087C37.4473 18.0087 38.4128 19.5774 38.4128 21.571C38.4128 23.4981 37.3482 25.0266 35.662 25.0266C33.9108 25.0266 32.957 23.4578 32.957 21.5046C32.957 19.5513 33.9226 18.0087 35.662 18.0087ZM35.6738 19.2985C34.7869 19.2985 34.7305 20.5339 34.7305 21.3052V21.3307C34.7304 22.1122 34.7302 23.7236 35.662 23.7236C36.6042 23.7236 36.6392 22.3945 36.6392 21.5841C36.6392 21.0525 36.6169 20.4141 36.4594 19.9096C36.3242 19.4739 36.0549 19.2985 35.6738 19.2985Z" fill="#181B1D"/>
<path d="M12.2373 24.8981C12.1258 24.8921 12.0353 24.8036 12.0244 24.6899V18.3715C12.0284 18.2449 12.1306 18.1447 12.2543 18.146H13.3753C13.4902 18.1525 13.5819 18.2463 13.5882 18.3638V19.1885H13.6106C13.9022 18.39 14.4526 18.0185 15.1936 18.0185C15.9344 18.0185 16.4167 18.39 16.7541 19.1885C16.9795 18.574 17.5111 18.1316 18.1449 18.0311C18.7787 17.9306 19.4162 18.1877 19.8126 18.7037C20.1396 19.1586 20.1291 19.7921 20.1193 20.3873C20.1176 20.4878 20.116 20.5871 20.116 20.6843V24.6703C20.1149 24.7321 20.0897 24.7908 20.0462 24.8335C20.0026 24.8763 19.9442 24.8995 19.8839 24.8981H18.6821C18.5638 24.8917 18.4706 24.7926 18.4691 24.6715V21.3226C18.4691 21.272 18.4699 21.2069 18.4709 21.133C18.4748 20.8187 18.4807 20.344 18.4351 20.1395C18.3456 19.7147 18.0763 19.5949 17.7282 19.5949C17.4091 19.6048 17.1266 19.8083 17.0096 20.1123C16.895 20.4097 16.896 20.8883 16.8967 21.2431L16.8968 21.3226V24.6703C16.8957 24.7319 16.8707 24.7904 16.8274 24.8332C16.7841 24.8759 16.7259 24.8992 16.6658 24.8981H15.4607C15.3428 24.8912 15.2499 24.7924 15.2478 24.6715V21.3226C15.2478 21.2542 15.2488 21.1826 15.2499 21.1091C15.2595 20.426 15.2714 19.5796 14.5027 19.5796C13.6711 19.5796 13.6718 20.5423 13.6723 21.2702V24.6703C13.6712 24.7321 13.6461 24.7908 13.6025 24.8335C13.559 24.8763 13.5006 24.8995 13.4402 24.8981H12.2373Z" fill="#181B1D"/>
<path fill-rule="evenodd" clip-rule="evenodd" d="M9.86082 24.9754C9.95213 25.028 10.0659 25.0163 10.145 24.946L10.1546 24.9482C10.3941 24.7292 10.8306 24.3414 11.0765 24.1311C11.1702 24.0494 11.1532 23.9133 11.0765 23.8043C11.0531 23.7714 11.0296 23.739 11.0062 23.7069C10.8091 23.4365 10.6219 23.1798 10.6219 22.6637V20.7475C10.6219 20.6856 10.6222 20.6241 10.6225 20.563C10.6262 19.823 10.6296 19.1459 10.0897 18.6286C9.62982 18.1754 8.86545 18.0164 8.27999 18.0164C7.13559 18.0164 5.85814 18.4532 5.59094 19.8999C5.57985 19.9585 5.59271 20.0191 5.62651 20.0677C5.66031 20.1163 5.71209 20.1486 5.76978 20.157L6.92585 20.2867C7.03877 20.2692 7.12607 20.1762 7.13877 20.0601C7.23888 19.5622 7.64765 19.3215 8.10647 19.3215C8.35555 19.3215 8.63445 19.4141 8.78138 19.6407C8.93215 19.8682 8.92981 20.1701 8.92772 20.4413C8.92748 20.4726 8.92724 20.5037 8.92724 20.534V20.693C8.81791 20.7057 8.70337 20.7176 8.58535 20.7299C7.95061 20.7963 7.21636 20.873 6.66611 21.12C5.92095 21.4534 5.38867 22.1321 5.38867 23.1311C5.38867 24.41 6.17645 25.0495 7.18882 25.0495C8.04366 25.0495 8.51099 24.8436 9.17207 24.1551C9.20392 24.2026 9.23266 24.2465 9.25979 24.2879C9.4175 24.5286 9.52019 24.6854 9.86082 24.9754ZM8.93257 22.0055L8.93251 21.6811C8.06282 21.6811 7.14409 21.8717 7.14409 22.9197C7.14409 23.4536 7.41341 23.813 7.87439 23.813C8.21293 23.813 8.51632 23.5995 8.70792 23.2531C8.93335 22.8428 8.93299 22.4586 8.93257 22.0055Z" fill="#181B1D"/>
<path fill-rule="evenodd" clip-rule="evenodd" d="M26.8379 23.7999C26.8145 23.7669 26.7909 23.7345 26.7674 23.7024C26.5704 23.432 26.3833 23.1754 26.3833 22.6604V20.743C26.3833 20.6779 26.3837 20.6131 26.384 20.5489L26.3841 20.5468C26.3882 19.8106 26.3921 19.1388 25.8511 18.6242C25.3901 18.171 24.6257 18.012 24.0414 18.012C22.897 18.012 21.6195 18.4477 21.3512 19.8955C21.3398 19.9544 21.3527 20.0155 21.3867 20.0643C21.4208 20.1132 21.473 20.1455 21.5312 20.1537L22.6968 20.2822C22.8095 20.2644 22.8967 20.1716 22.9097 20.0556C23.0108 19.5578 23.4175 19.317 23.8763 19.317C24.1243 19.317 24.4086 19.4107 24.5513 19.6373C24.703 19.864 24.7007 20.166 24.6986 20.4373C24.6984 20.4685 24.6981 20.4993 24.6981 20.5295V20.6853C24.5911 20.6975 24.4791 20.7091 24.3636 20.721C23.727 20.7868 22.9885 20.8632 22.4371 21.1113C21.6834 21.4446 21.1543 22.1233 21.1543 23.1234C21.1543 24.4012 21.9421 25.0407 22.9544 25.0407C23.8061 25.0407 24.2766 24.8348 24.9366 24.1463C24.968 24.1931 24.9964 24.2363 25.0231 24.277C25.1831 24.5209 25.2844 24.6754 25.6264 24.9666C25.7177 25.0189 25.831 25.0076 25.9107 24.9383C26.1502 24.7204 26.5867 24.3315 26.8326 24.1212C26.9359 24.0461 26.9188 23.9132 26.8379 23.7999ZM24.4746 23.2476C24.284 23.5929 23.9796 23.8064 23.6421 23.8064C23.1812 23.8064 22.9119 23.4469 22.9119 22.9142C22.9119 21.8651 23.8305 21.6756 24.7003 21.6756V21.9902C24.7006 22.449 24.7008 22.8351 24.4746 23.2476Z" fill="#181B1D"/>
<path d="M27.8561 19.2496V18.3497C27.8533 18.2881 27.8762 18.2282 27.919 18.1848C27.9618 18.1414 28.0206 18.1186 28.0807 18.1221H32.0334C32.0935 18.12 32.1518 18.1431 32.1948 18.1861C32.2378 18.2291 32.2618 18.2882 32.2612 18.3497V19.1243C32.2612 19.2539 32.1547 19.4239 31.9642 19.6918L29.916 22.6833C30.6761 22.6648 31.4798 22.7814 32.1707 23.179C32.2983 23.2486 32.3796 23.3829 32.3836 23.5309V24.4983C32.3836 24.6312 32.242 24.7848 32.0919 24.7052C30.7808 24.0156 29.2244 24.0184 27.9157 24.7129C27.7784 24.788 27.6347 24.6366 27.6347 24.5037V23.5831C27.6221 23.3662 27.6733 23.1503 27.7816 22.9633L30.1545 19.4772H28.085C28.0247 19.4796 27.9661 19.4566 27.9229 19.4136C27.8796 19.3706 27.8555 19.3113 27.8561 19.2496Z" fill="#181B1D"/>
<path fill-rule="evenodd" clip-rule="evenodd" d="M48.7477 18.9249C49.0497 18.6523 49.395 18.4342 49.7685 18.28C50.1214 18.136 50.4979 18.0621 50.8778 18.0621C51.2554 18.0549 51.63 18.1322 51.9754 18.2887C52.3008 18.4414 52.5859 18.6715 52.8067 18.9598C53.0473 19.2791 53.2251 19.6432 53.3305 20.0317C53.4582 20.4922 53.5198 20.9693 53.5136 21.4479C53.5194 21.9368 53.4534 22.4237 53.3177 22.8925C53.2042 23.2902 53.0181 23.6624 52.7695 23.9895C52.5385 24.2868 52.2453 24.5273 51.9115 24.6932C51.5606 24.8599 51.1772 24.9422 50.7905 24.934C50.0678 24.9462 49.3682 24.6731 48.8371 24.1714V27.1955C48.8472 27.2667 48.8239 27.3386 48.7743 27.3895C48.7246 27.4403 48.6543 27.4641 48.5847 27.4537H47.8396C47.7701 27.4641 47.6998 27.4403 47.6502 27.3895C47.6005 27.3386 47.5772 27.2667 47.5873 27.1955V18.512C47.5776 18.4409 47.6011 18.3694 47.6506 18.3187C47.7002 18.2679 47.7701 18.2439 47.8396 18.2538H48.3942C48.4666 18.2469 48.5386 18.2705 48.5935 18.3193C48.6484 18.3681 48.6814 18.4377 48.6849 18.512L48.7477 18.9249ZM50.5254 19.0927C49.9142 19.0976 49.3212 19.306 48.836 19.6864V23.2814C49.374 23.6953 49.9286 23.902 50.4999 23.9012C51.6595 23.9012 52.2394 23.1023 52.2394 21.5045C52.2394 19.9068 51.668 19.1024 50.5254 19.0916V19.0927Z" fill="#181B1D"/>
<path fill-rule="evenodd" clip-rule="evenodd" d="M55.0884 19.4108L55.1831 19.3781C55.7827 19.1891 56.4059 19.09 57.0332 19.084C57.5379 19.0847 57.891 19.1794 58.0925 19.3683C58.294 19.5571 58.3948 19.8839 58.3948 20.3487V21.1963C57.8756 21.0599 57.3425 20.9868 56.8065 20.9784C56.067 20.9777 55.4787 21.1647 55.0415 21.5395C54.6043 21.9142 54.3857 22.4153 54.3857 23.0428C54.3872 23.6275 54.5646 24.0941 54.918 24.4427C55.2715 24.7913 55.7505 24.9656 56.3552 24.9656C56.729 24.964 57.0993 24.89 57.4463 24.7477C57.8123 24.6015 58.1511 24.3922 58.448 24.1289L58.5119 24.5549C58.5151 24.6256 58.5465 24.6919 58.5989 24.7383C58.6512 24.7846 58.7198 24.8069 58.7887 24.8H59.3316C59.4011 24.8099 59.471 24.7859 59.5206 24.7352C59.5702 24.6844 59.5936 24.6128 59.5839 24.5418V20.1341C59.5832 19.4282 59.3937 18.9078 59.0154 18.573C58.6372 18.2382 58.0489 18.0708 57.2504 18.0708C56.8531 18.0708 56.4566 18.1073 56.0656 18.1798C55.7243 18.2356 55.3904 18.331 55.0702 18.4641C54.9928 18.4909 54.9235 18.5378 54.8691 18.6002C54.8277 18.677 54.8099 18.7647 54.818 18.8519V19.1972C54.818 19.353 54.8755 19.4304 54.9819 19.4304C55.0182 19.4298 55.0541 19.4232 55.0884 19.4108ZM57.5283 23.8326C57.2499 23.939 56.9557 23.9954 56.6585 23.9993C56.3307 24 56.0784 23.9121 55.9017 23.7356C55.725 23.5592 55.6366 23.3075 55.6366 22.9807C55.6359 22.2319 56.111 21.8575 57.062 21.8575C57.2874 21.858 57.5124 21.8733 57.7359 21.9033C57.9585 21.932 58.1796 21.9727 58.398 22.0253V23.3424C58.1339 23.5498 57.8407 23.715 57.5283 23.8326Z" fill="#181B1D"/>
<path d="M62.8982 27.2206C63.1958 26.9621 63.4592 26.5361 63.6868 25.9427L66.4608 18.7179C66.5069 18.62 66.5368 18.5152 66.5494 18.4075C66.5494 18.305 66.4907 18.2527 66.3728 18.2527H65.6668C65.5698 18.2432 65.4722 18.2657 65.389 18.317C65.3178 18.3984 65.2663 18.4958 65.2387 18.6013L63.5359 23.6071L61.7695 18.6013C61.742 18.4958 61.6905 18.3984 61.6193 18.317C61.536 18.2657 61.4384 18.2432 61.3414 18.2527H60.5846C60.4679 18.2527 60.4092 18.305 60.4092 18.4075C60.4212 18.5152 60.4505 18.6201 60.4966 18.7179L62.9257 24.8632L62.6862 25.5168C62.5437 25.93 62.3839 26.214 62.2072 26.3687C61.9941 26.5356 61.7294 26.618 61.4618 26.6008C61.348 26.6032 61.2343 26.5944 61.1223 26.5746C61.06 26.5609 60.9966 26.5525 60.9331 26.5495C60.8062 26.5495 60.7433 26.6312 60.7433 26.7947V27.1302C60.7361 27.2227 60.7583 27.315 60.8062 27.3938C60.8582 27.4564 60.9295 27.4997 61.0085 27.5169C61.2426 27.5803 61.4845 27.6106 61.727 27.6073C62.2096 27.608 62.6 27.4792 62.8982 27.2206Z" fill="#181B1D"/>
<path fill-rule="evenodd" clip-rule="evenodd" d="M29.8323 28.9157C30.106 28.2196 30.7148 26.6596 30.4253 26.2815H30.4274C30.1391 25.9027 28.521 26.1015 27.7932 26.1909L27.7916 26.1911C27.5702 26.2183 27.5361 26.0212 27.7352 25.8785C29.0275 24.9492 31.1449 25.215 31.3908 25.5287C31.6367 25.8425 31.3238 28.0147 30.1134 29.0518C29.9271 29.2109 29.7493 29.1259 29.8323 28.9157ZM21.1361 29.9898C23.9507 29.9898 27.2285 29.0802 29.4864 27.3753V27.3785C29.8601 27.091 29.5396 26.6683 29.1585 26.8339C26.6939 27.8977 24.0483 28.453 21.3735 28.468C17.6625 28.468 14.0729 27.4265 11.1688 25.6976C10.9144 25.5462 10.7249 25.8131 10.9378 26.0081C13.7336 28.5895 17.3706 30.0095 21.1361 29.9898Z" fill="#181B1D"/>
</svg>
