<svg width="144" height="48" viewBox="0 0 144 48" fill="none" xmlns="http://www.w3.org/2000/svg">
<g clip-path="url(#clip0_82_11309)">
<path fill-rule="evenodd" clip-rule="evenodd" d="M61.5896 30.5266C60.6608 30.5266 60.1246 29.6736 60.0656 29.0034V29.0018C59.1852 30.1679 57.4073 30.8012 55.7763 30.8012C52.0688 30.8012 49.0635 27.7929 49.0635 24.0822C49.0635 20.3717 52.0688 17.3639 55.7763 17.3639C57.4073 17.3639 59.034 17.8917 60.0656 19.1634V18.1923H60.068C60.079 17.991 60.2456 17.8297 60.4491 17.8297H62.1329C62.3364 17.8297 62.503 17.991 62.514 18.1923H62.516V30.1432C62.516 30.3539 62.3436 30.5266 62.1329 30.5266H61.5896ZM51.5134 24.0822C51.5134 26.4944 53.4252 28.4494 55.783 28.4494C58.1408 28.4494 60.0521 26.4944 60.0521 24.0822C60.0521 21.6705 58.1408 19.7153 55.783 19.7153C53.4252 19.7153 51.5134 21.6705 51.5134 24.0822Z" fill="#181B1D"/>
<path d="M66.539 27.292C67.6632 28.0713 68.8901 28.4497 70.0694 28.4497C71.1926 28.4497 72.3537 27.867 72.3537 26.8526C72.3537 25.8255 70.8984 25.4562 69.5016 25.1018C69.0566 24.9889 68.6174 24.8775 68.2334 24.7469C66.6432 24.2061 65.2737 23.0883 65.2737 21.278C65.2737 18.508 67.74 17.3639 70.0421 17.3639C71.5003 17.3639 73.0056 17.8452 73.9809 18.5347C74.3169 18.7894 74.1125 19.082 74.1125 19.082L73.1813 20.4131C73.0766 20.563 72.8933 20.6925 72.6307 20.5303C72.6125 20.519 72.5908 20.5054 72.5668 20.4899C72.238 20.2808 71.3491 19.7154 70.0421 19.7154C68.6376 19.7154 67.7913 20.3644 67.7913 21.1689C67.7913 22.1337 68.891 22.4372 70.1789 22.766C72.4233 23.3714 74.8718 24.0991 74.8718 26.8526C74.8718 29.2933 72.5904 30.8015 70.0694 30.8015C68.1585 30.8015 66.5323 30.2565 65.1677 29.2546C64.8835 28.97 65.0822 28.7057 65.0822 28.7057L66.0091 27.3813C66.1973 27.1337 66.4353 27.22 66.539 27.292Z" fill="#181B1D"/>
<path fill-rule="evenodd" clip-rule="evenodd" d="M118.166 29.0034C118.225 29.6736 118.761 30.5266 119.69 30.5266H120.234C120.444 30.5266 120.617 30.3539 120.617 30.1432V18.1923H120.614C120.603 17.991 120.437 17.8297 120.234 17.8297H118.55C118.346 17.8297 118.18 17.991 118.169 18.1923H118.166V19.1634C117.135 17.8917 115.508 17.3639 113.877 17.3639C110.169 17.3639 107.164 20.3717 107.164 24.0822C107.164 27.7929 110.169 30.8008 113.877 30.8008C115.508 30.8008 117.286 30.1679 118.166 29.0018V29.0034ZM113.884 28.4494C111.525 28.4494 109.614 26.4944 109.614 24.0822C109.614 21.6705 111.525 19.7153 113.884 19.7153C116.241 19.7153 118.153 21.6705 118.153 24.0822C118.153 26.4944 116.241 28.4494 113.884 28.4494Z" fill="#181B1D"/>
<path d="M105.035 23.2307C105.035 19.7447 102.838 17.3931 99.3339 17.3931C97.6611 17.3931 96.2897 18.3611 95.8054 19.1926C95.7008 18.5424 95.3557 17.859 94.2857 17.859H93.7409C93.5297 17.859 93.3574 18.0318 93.3574 18.2426V30.1944H93.3598C93.3709 30.3955 93.5374 30.557 93.7409 30.557H95.4248C95.4507 30.557 95.4757 30.5539 95.5001 30.5491C95.5073 30.5477 95.5141 30.5455 95.5213 30.5431C95.5251 30.5419 95.5289 30.5406 95.5328 30.5394C95.5361 30.5383 95.54 30.5373 95.5438 30.5362C95.5529 30.5337 95.5616 30.5312 95.5702 30.5278C95.5817 30.5229 95.5928 30.5168 95.6033 30.5107L95.6125 30.5055C95.6158 30.5036 95.6187 30.502 95.6216 30.5004C95.624 30.4993 95.6264 30.4981 95.6283 30.4968C95.6302 30.4959 95.6317 30.4949 95.6331 30.4939C95.6499 30.4831 95.6653 30.47 95.6801 30.4567C95.6825 30.4542 95.6854 30.4527 95.6883 30.4504C95.7046 30.4342 95.72 30.4163 95.7339 30.3977C95.7757 30.3398 95.8016 30.2698 95.8059 30.1944H95.8078V23.1348C95.8078 21.2626 97.3246 19.7447 99.1957 19.7447C101.066 19.7447 102.583 21.2626 102.583 23.1348L102.585 29.0357V29.0336C102.585 29.0362 102.585 29.0388 102.585 29.0415C102.586 29.0442 102.586 29.047 102.586 29.0499V30.1944H102.588C102.599 30.3955 102.765 30.557 102.969 30.557H104.653C104.679 30.557 104.704 30.5539 104.729 30.5491C104.739 30.5472 104.748 30.5432 104.757 30.5406L104.767 30.5379C104.778 30.5349 104.788 30.5319 104.799 30.5278L104.803 30.526C104.807 30.5241 104.811 30.522 104.815 30.5197C104.82 30.5174 104.824 30.5148 104.828 30.5123L104.838 30.5068L104.842 30.5047L104.847 30.502C104.852 30.4995 104.857 30.4971 104.862 30.4939C104.877 30.4838 104.892 30.4714 104.906 30.4591L104.908 30.4574L104.913 30.4529C104.914 30.4519 104.916 30.451 104.917 30.45C104.933 30.4347 104.947 30.4181 104.96 30.4006L104.961 30.3993L104.961 30.3983L104.963 30.3969C105.004 30.3395 105.03 30.2703 105.034 30.1955V30.195L105.034 30.1944H105.036L105.035 23.2307Z" fill="#181B1D"/>
<path fill-rule="evenodd" clip-rule="evenodd" d="M89.0222 30.5271C88.0939 30.5271 87.5577 29.6741 87.4987 29.0039V29.0023C86.6179 30.1684 84.8404 30.8016 83.2094 30.8016C79.5019 30.8016 76.4961 27.7934 76.4961 24.0827C76.4961 20.3722 79.5019 17.3644 83.2094 17.3644C84.8404 17.3644 86.4667 17.8922 87.4987 19.1639V18.1928H87.5006C87.5121 17.9915 87.6782 17.8302 87.8817 17.8302H89.5655C89.7691 17.8302 89.9356 17.9915 89.9467 18.1928H89.9486V30.1437C89.9486 30.3544 89.7763 30.5271 89.5655 30.5271H89.0222ZM78.9465 24.0827C78.9465 26.4948 80.8579 28.4499 83.2156 28.4499C85.5739 28.4499 87.4852 26.4948 87.4852 24.0827C87.4852 21.6709 85.5739 19.7158 83.2156 19.7158C80.8579 19.7158 78.9465 21.6709 78.9465 24.0827Z" fill="#181B1D"/>
<path fill-rule="evenodd" clip-rule="evenodd" d="M39.6514 24.5397C37.1564 24.5397 35.1338 26.5624 35.1338 29.0575C35.1338 31.5525 37.1564 33.5751 39.6514 33.5751C42.1465 33.5751 44.1691 31.5525 44.1691 29.0575C44.1691 26.5624 42.1465 24.5397 39.6514 24.5397ZM27.9141 24.5401C25.4191 24.5401 23.3965 26.5624 23.3965 29.0575C23.3965 31.5525 25.4191 33.5751 27.9141 33.5751C30.4093 33.5751 32.432 31.5525 32.432 29.0575C32.432 26.5624 30.4093 24.5401 27.9141 24.5401ZM38.3004 18.8926C38.3004 21.3878 36.2778 23.4106 33.7828 23.4106C31.2877 23.4106 29.2651 21.3878 29.2651 18.8926C29.2651 16.3979 31.2877 14.3751 33.7828 14.3751C36.2778 14.3751 38.3004 16.3979 38.3004 18.8926Z" fill="#181B1D"/>
</g>
<defs>
<clipPath id="clip0_82_11309">
<rect width="143.701" height="48" fill="white"/>
</clipPath>
</defs>
</svg>
