<svg width="72" height="48" viewBox="0 0 72 48" fill="none" xmlns="http://www.w3.org/2000/svg">
<path d="M24.8452 27.3379H22.4346C22.7466 27.0535 22.8321 26.0305 22.9453 24.1831L22.9729 23.7571L23.0861 21.3415C23.0861 20.8584 23.0293 20.5458 22.8873 20.4319H25.5817C26.2333 20.4319 27.5104 20.4595 27.5104 21.7963C27.5104 22.7059 26.6822 23.2459 25.9219 23.4451C26.9996 23.5303 27.7992 24.0703 27.7992 25.1785C27.8268 26.3719 26.6932 27.3385 24.8496 27.3385L24.8452 27.3379ZM24.7646 23.9856H24.2826L24.1975 25.0092L24.1407 26.2884C24.1407 26.3454 24.3394 26.4876 24.7922 26.4876C25.7568 26.4876 26.3807 26.0046 26.3807 25.2084C26.4083 24.3276 25.643 23.9911 24.7641 23.9911L24.7646 23.9856ZM24.9628 21.2635C24.8209 21.2635 24.6509 21.2635 24.4808 21.2911C24.3958 21.7741 24.3676 22.2289 24.3389 22.7684L24.3113 23.1667H24.4813C25.3604 23.1667 26.1543 22.8541 26.1543 22.0585C26.1819 21.6037 25.7855 21.2629 24.9633 21.2629L24.9628 21.2635ZM33.4662 27.4016C32.8699 27.4016 32.8147 27.3739 32.3603 25.7528L32.1902 25.1553C31.9065 25.2975 31.3963 25.3545 30.6017 25.3545H29.7735L29.6316 25.6671C29.4897 25.9797 29.1496 26.6336 29.1496 27.0315C29.1472 27.1363 29.1567 27.2412 29.1778 27.3441H27.5325C27.9863 26.8893 28.6102 25.781 29.4329 24.0243L29.9149 23.0008L30.8226 20.869C30.8226 20.7268 30.795 20.6133 30.7376 20.4706H32.2405L32.9781 23.1983L33.2619 24.2783C33.7727 26.1262 34.1122 27.006 34.5097 27.3479L33.4607 27.4049L33.4662 27.4016ZM31.3052 22.0618L30.1705 24.4775H31.9859L31.3052 22.0618ZM39.9847 27.6323C39.474 27.6323 39.3608 27.5471 39.1907 27.3197L37.234 24.6474C37.0921 24.426 36.9502 24.2778 36.7233 24.2778H36.6957L36.6681 24.8178L36.583 26.523C36.583 26.9778 36.6399 27.2622 36.7818 27.375H34.9045C35.1884 27.1537 35.2734 26.3515 35.4434 24.2202L35.471 23.7942L35.5842 21.3786C35.5842 20.8955 35.5273 20.5829 35.3855 20.469H37.9098C38.7601 20.469 39.8665 20.6112 39.8665 21.9462C39.8665 23.0544 39.1289 23.6514 38.2212 23.9358C38.3416 24.0624 38.4551 24.1954 38.5613 24.3342L39.951 26.1822C40.83 27.3474 40.8869 27.3994 41.1989 27.5466C40.7963 27.6021 40.3905 27.6306 39.9842 27.6318L39.9847 27.6323ZM37.4885 21.2939C37.3185 21.2939 37.1197 21.2939 36.9496 21.3216C36.8928 21.606 36.8646 22.1172 36.8077 22.9416L36.7801 23.4246C36.8652 23.4522 37.001 23.4522 37.0921 23.4522C37.9424 23.4522 38.5387 22.9122 38.5387 22.1448C38.5111 21.6048 38.1412 21.2928 37.4896 21.2928L37.4885 21.2939ZM43.6492 27.4801C41.8625 27.4801 40.8416 26.0029 40.8416 24.3817C40.8416 22.1133 42.0895 20.3173 44.4438 20.3173C45.1814 20.3173 45.5215 20.4595 46.1454 20.4595L45.9754 22.2217C45.6353 21.5965 45.0677 21.1981 44.33 21.1981C42.8558 21.1981 42.2595 22.7899 42.2595 24.1538C42.2595 25.6311 43.1098 26.4555 44.1881 26.4555C44.7844 26.4555 45.3227 26.3133 46.2018 25.6881C45.8329 26.7681 45.0108 27.4785 43.6492 27.4785V27.4801ZM55.7879 27.3933C55.1916 27.3933 55.1639 27.3656 54.6819 25.7445L54.5119 25.147C54.2281 25.2891 53.718 25.3461 52.9234 25.3461H52.0731L51.9312 25.6587C51.7104 26.1135 51.4492 26.6535 51.4492 27.0231C51.4492 27.1083 51.4768 27.2223 51.4768 27.3357H46.5987C46.8825 27.0231 46.9676 26.0001 47.1095 24.1809L47.1371 23.7549L47.2502 21.3393C47.2502 20.8845 47.1933 20.5719 47.0802 20.4297H48.9806C48.6968 20.6289 48.6118 21.7371 48.4986 23.5845L48.471 24.0105L48.3291 26.0566C48.3291 26.3692 48.4423 26.4549 48.783 26.4549C49.9458 26.4549 50.2008 26.4273 50.7397 26.0853C51.0799 25.4878 51.4205 24.7497 51.7888 23.9829L52.2708 22.9593L53.1785 20.8275C53.1785 20.6853 53.1509 20.5719 53.0935 20.4291H54.5909L55.3285 23.1568L55.6123 24.2368C56.123 26.0848 56.4405 26.9645 56.8888 27.3064C56.522 27.3549 56.1528 27.3833 55.7829 27.3916L55.7879 27.3933ZM53.6274 22.0486L52.5215 24.4642H54.3081L53.6274 22.0486ZM60.0938 23.6116L59.612 24.5212C59.4988 25.033 59.47 25.7146 59.47 26.4538C59.47 26.7664 59.5269 27.193 59.6688 27.3346H57.7916C58.1317 27.022 58.2454 25.1176 58.2454 24.4924C57.9904 23.6404 57.6491 22.7872 57.1395 21.7647C56.7994 21.1395 56.4305 20.5475 56.1749 20.4291L57.3896 20.3721C57.8435 20.3721 57.9859 20.4291 58.2686 21.0543L59.2332 23.3847L60.4477 21.4239C60.5327 21.2535 60.6465 21.0255 60.6465 20.8264C60.6465 20.6842 60.6189 20.4855 60.5615 20.428H62.4056C62.008 20.5132 60.4202 23.0428 60.0801 23.611L60.0938 23.6116ZM66.3191 22.048C66.0353 21.5362 65.4114 21.1384 64.7306 21.1384C64.1342 21.1384 63.6247 21.3597 63.6247 21.9904C63.6247 22.5305 64.2761 22.8713 64.9575 23.3261C65.6952 23.7809 66.4604 24.3496 66.4604 25.3439C66.4604 26.6231 65.2126 27.4464 63.7384 27.4464C63.1421 27.4464 62.5242 27.333 61.8099 27.0768L61.923 25.3716C62.2631 26.0538 62.8876 26.5888 63.8235 26.5888C64.5324 26.5888 65.1 26.248 65.1 25.6222C65.1 25.1104 64.6749 24.7702 64.1354 24.457C63.0008 23.7748 62.2913 23.2398 62.2913 22.24C62.2913 20.7627 63.5061 20.2792 64.8156 20.2792C65.5533 20.2792 66.0305 20.4214 66.4885 20.4214L66.3191 22.048Z" fill="#181B1D"/>
<path d="M19.7052 19.1821C19.5539 18.828 19.3021 18.4242 18.8483 18.1215C18.6467 17.97 18.3944 17.8184 18.1426 17.7177C17.9411 17.6624 17.7396 17.6165 17.4872 17.6165H17.432C17.1295 17.6165 16.5752 17.6718 16.2726 18.1215C16.1213 18.2732 16.0711 18.5763 16.1213 18.8286C16.1765 19.0305 16.3228 19.2324 16.5243 19.2833C16.5668 19.3184 16.6207 19.3364 16.6756 19.3337C16.6756 19.389 16.6204 19.4852 16.6204 19.4852C16.4691 19.6368 16.2174 19.8891 15.4609 19.8891H15.4057C15.0027 19.8338 14.7001 19.7375 14.2463 19.2828C13.9939 18.9796 13.8432 18.4242 13.8432 17.5656C13.8432 17.1108 13.788 16.7579 13.6919 16.4591C13.6367 16.2572 13.4396 16.0553 13.2889 15.954C13.1381 15.8528 13.0365 15.8025 12.7848 15.7012L11.9278 15.6C11.6253 15.6 11.4237 15.6553 11.3227 15.8019H11.0201C10.8688 15.8019 10.6667 15.8572 10.516 15.8572C10.2135 15.9125 10.0119 16.0592 9.8104 16.2113C9.7552 16.2666 9.55809 16.4641 9.50785 16.6661C9.50785 16.8176 9.56306 16.9692 9.56306 17.0201L9.61826 17.0754C9.71933 16.9742 9.92081 16.9238 10.1726 16.9238C10.526 16.9238 11.0295 17.0754 11.1305 17.3277C11.3829 17.7315 11.2818 18.0347 11.2818 18.3882C11.1305 19.3481 10.7777 19.8028 10.0213 19.904C9.87004 19.9593 9.71873 19.9593 9.61826 19.9593C9.06394 19.9593 8.66032 19.8078 8.45878 19.4543V19.353C8.45878 19.353 8.51398 19.353 8.55985 19.2977C8.76133 19.1964 8.91317 19.0449 8.96287 18.843C9.01807 18.5901 8.96287 18.3378 8.81162 18.1359C8.50901 17.8328 8.10599 17.6309 7.65214 17.6309C7.34953 17.6309 7.14799 17.6862 6.94651 17.7321C6.34135 17.8837 5.78701 18.3888 5.38395 19.197C5.08138 19.8033 4.87985 20.5104 4.82961 21.3186C4.77936 22.1268 4.77439 22.7835 4.82961 23.3893C4.88482 24.3995 5.08193 25.0058 5.33371 25.6575C5.58548 26.3092 5.88584 26.9205 6.2392 27.4776C6.34027 27.6292 6.39051 27.7808 6.49152 27.8814L6.54672 27.8261C6.60198 27.7708 6.64779 27.7249 6.69802 27.6242C6.89956 27.4727 7.25235 26.9675 7.35342 26.8165C7.45443 26.6655 7.60573 26.4126 7.7068 26.1599L7.76201 26.0586L7.86302 26.1139C7.96409 26.2152 8.01432 26.3667 8.01432 26.5178C8.01432 26.6688 7.95912 26.8209 7.86302 27.1241C7.76201 27.4782 7.56047 27.882 7.35893 28.2858C7.41413 28.3412 7.41413 28.4375 7.35893 28.4375C7.20762 28.6903 7.20762 28.7915 7.20762 28.8922H7.26289C7.31809 28.8922 7.5152 28.8369 7.66591 28.6902C7.81721 28.589 8.22023 28.2355 8.72438 27.5285C9.1274 27.0234 9.37972 26.468 9.68233 25.8617L9.73753 25.7604L9.83854 25.8158C9.89381 25.8711 9.93961 25.8711 9.98985 25.917C10.0451 26.0182 10.0451 26.1698 10.0451 26.3208C9.98985 26.7247 9.7425 27.2807 9.5912 27.6845C9.28865 28.3916 8.73432 29.1494 8.3307 29.7049C8.31945 29.7405 8.29987 29.7728 8.27352 29.7992C8.24718 29.8256 8.2149 29.8452 8.1794 29.8565C8.2346 29.9118 8.28047 29.9577 8.38094 30.008L8.53224 30.1596C9.0628 30.604 9.637 30.9932 10.2461 31.3214C10.7501 31.6245 11.7589 32.1291 12.464 32.3316C13.1696 32.18 14.1778 31.6245 14.6819 31.3214C15.2909 30.9932 15.8651 30.604 16.3957 30.1596L16.547 30.008C16.648 29.9527 16.6983 29.8565 16.7485 29.8565C16.8037 29.7552 16.8037 29.7049 16.8037 29.6545L16.7485 29.5992C16.3455 29.0941 15.7906 28.2858 15.488 27.5789C15.3367 27.175 15.0849 26.619 15.0342 26.2152C14.979 26.0636 15.0342 25.912 15.0894 25.8113L15.1904 25.7101C15.2456 25.6548 15.3417 25.6548 15.3417 25.6548L15.3969 25.756C15.6995 26.3623 16.002 26.9178 16.3548 27.4229C16.8589 28.1298 17.262 28.4834 17.4133 28.5846C17.5645 28.7362 17.7159 28.7865 17.8163 28.7865H17.8715C17.9268 28.7312 17.8715 28.6349 17.7203 28.3827C17.6651 28.3274 17.6651 28.2815 17.6651 28.2311C17.4635 27.8273 17.262 27.4234 17.161 27.0693C17.0599 26.7662 17.0097 26.5643 17.0097 26.463C17.0097 26.3114 17.0649 26.1599 17.161 26.0592L17.262 26.0039L17.3172 26.1051C17.4183 26.3579 17.6198 26.6605 17.7203 26.8121C17.8208 26.9637 18.2244 27.4184 18.3254 27.57C18.4265 27.6713 18.4767 27.7216 18.4767 27.7719L18.5319 27.8273C18.5871 27.7719 18.633 27.6756 18.7334 27.4732L18.7886 27.4179C19.0912 26.9128 19.3938 26.2561 19.6456 25.5994C19.8979 24.9931 20.0486 24.3364 20.1497 23.3312C20.2049 22.7249 20.2507 22.0682 20.1497 21.2605C20.2049 20.5026 19.9984 19.7447 19.7466 19.1898L19.7052 19.1821Z" fill="#181B1D"/>
</svg>
