<svg width="144" height="48" viewBox="0 0 144 48" fill="none" xmlns="http://www.w3.org/2000/svg">
<path d="M49.1855 18.6173H53.7547C56.2853 18.6173 57.5992 19.6572 57.5992 21.6098V21.7071C57.6356 22.2793 57.4656 22.8454 57.1202 23.3026C56.7749 23.7598 56.2772 24.0776 55.7182 24.1983C56.3878 24.2574 57.0072 24.5789 57.4421 25.0929C57.8766 25.607 58.0916 26.2722 58.0399 26.944V27.0113C58.0399 29.1435 56.6436 30.2657 53.9636 30.2657H49.1855V18.6173ZM53.3289 23.3978C54.5983 23.3978 55.0983 22.9415 55.0983 21.9016V21.8343C55.0983 20.8617 54.5461 20.4203 53.3141 20.4203H51.7535V23.4128L53.3289 23.3978ZM53.5531 28.4327C54.8521 28.4327 55.4418 27.8417 55.4418 26.7869V26.7195C55.4418 25.6422 54.8521 25.0961 53.4262 25.0961H51.7535V28.4402L53.5531 28.4327Z" fill="#181B1D"/>
<path d="M58.7275 27.8938C58.7275 25.9038 60.5415 25.1557 63.1473 25.1557H64.1029V24.8191C64.1029 23.8091 63.7968 23.2555 62.7215 23.2555C62.5476 23.2348 62.3713 23.2499 62.2032 23.3001C62.0355 23.3503 61.8794 23.4344 61.7453 23.5472C61.6107 23.6601 61.501 23.7992 61.4224 23.9562C61.3438 24.1132 61.2983 24.2846 61.2883 24.4599H59.0485C59.1979 22.44 60.7882 21.5422 62.8709 21.5422C64.9541 21.5422 66.4246 22.3876 66.4246 24.6993V30.2504H64.1326V29.2255C63.8452 29.6316 63.4572 29.9561 63.0069 30.1672C62.5572 30.3783 62.06 30.4688 61.5647 30.43C60.0266 30.43 58.7275 29.6819 58.7275 27.8938ZM64.1029 27.2729V26.5248H63.1918C61.8257 26.5248 61.0344 26.824 61.0344 27.7292C61.0344 28.3502 61.4076 28.7617 62.2664 28.7617C63.3039 28.7916 64.1029 28.2155 64.1029 27.2729Z" fill="#181B1D"/>
<path d="M67.418 27.5798H69.6128C69.71 28.3279 70.0831 28.7917 71.1058 28.7917C72.0169 28.7917 72.4422 28.4476 72.4422 27.8566C72.4422 27.2655 71.935 27.0262 70.7178 26.8541C68.478 26.5099 67.5823 25.859 67.5823 24.1982C67.5823 22.5373 69.2099 21.5424 70.942 21.5424C72.8307 21.5424 74.2418 22.2306 74.4507 24.1833H72.2933C72.1663 23.48 71.7707 23.1583 70.964 23.1583C70.1579 23.1583 69.7622 23.5174 69.7622 24.0336C69.7622 24.5498 70.1655 24.7817 71.397 24.9613C73.5248 25.268 74.6969 25.8067 74.6969 27.6321C74.6969 29.4576 73.3681 30.4301 71.1211 30.4301C68.8737 30.4301 67.4999 29.4202 67.418 27.5798Z" fill="#181B1D"/>
<path d="M75.3028 26.0986V25.9715C75.2745 25.3868 75.3675 24.8026 75.5763 24.2559C75.7852 23.7092 76.1051 23.2119 76.5156 22.7956C76.9261 22.3792 77.4186 22.0528 77.9617 21.8371C78.5045 21.6215 79.0864 21.5211 79.6703 21.5425C81.8651 21.5425 83.8137 22.8293 83.8137 25.8742V26.525H77.7141C77.774 27.939 78.5428 28.7695 79.8193 28.7695C80.9095 28.7695 81.447 28.2981 81.5964 27.5799H83.8362C83.5598 29.4203 82.0965 30.4453 79.7748 30.4453C77.169 30.4303 75.3028 28.8218 75.3028 26.0986ZM81.5217 25.0737C81.447 23.7869 80.7903 23.2033 79.6703 23.2033C79.166 23.201 78.6807 23.3945 78.3157 23.7433C77.9512 24.0921 77.7357 24.5689 77.7141 25.0737H81.5217Z" fill="#181B1D"/>
<path d="M84.4336 26.0985V25.9713C84.4054 25.3853 84.4988 24.7998 84.7086 24.252C84.9184 23.7043 85.2393 23.2063 85.6517 22.7897C86.0642 22.3731 86.558 22.0471 87.1031 21.8323C87.6477 21.6176 88.2312 21.5188 88.8165 21.5423C90.7871 21.5423 92.6016 22.4027 92.8181 24.8491H90.5783C90.5634 24.6391 90.5064 24.4342 90.4111 24.2468C90.3158 24.0592 90.1836 23.8928 90.0226 23.7574C89.8617 23.622 89.6754 23.5204 89.4747 23.4586C89.274 23.3969 89.0627 23.3761 88.8534 23.3977C87.6367 23.3977 86.8229 24.3104 86.8229 25.9413V26.0685C86.8229 27.7818 87.5697 28.657 88.9061 28.657C89.1331 28.6701 89.3611 28.6378 89.5757 28.5619C89.7903 28.4859 89.9881 28.3679 90.1568 28.2148C90.3258 28.0616 90.4624 27.8763 90.5591 27.6697C90.6559 27.463 90.7105 27.2392 90.7201 27.0112H92.8478C92.7209 29.0311 91.2575 30.4301 88.7863 30.4301C86.3152 30.4301 84.4336 28.8815 84.4336 26.0985Z" fill="#181B1D"/>
<path d="M93.3906 27.8938C93.3906 25.9038 95.2051 25.1557 97.8032 25.1557H98.766V24.8191C98.766 23.8091 98.4527 23.2555 97.385 23.2555C97.2097 23.2325 97.032 23.2461 96.862 23.2952C96.6924 23.3444 96.5348 23.4282 96.3988 23.5412C96.2627 23.6542 96.1516 23.7942 96.0721 23.9523C95.9926 24.1104 95.9466 24.2832 95.9365 24.4599H93.6972C93.8462 22.44 95.4364 21.5422 97.512 21.5422C99.5875 21.5422 101.073 22.3876 101.073 24.6993V30.2504H98.7813V29.2255C98.4934 29.6316 98.1059 29.9561 97.6557 30.1672C97.2054 30.3783 96.7082 30.4688 96.2129 30.43C94.7199 30.43 93.3906 29.6819 93.3906 27.8938ZM98.766 27.2729V26.5248H97.8703C96.5041 26.5248 95.7052 26.824 95.7052 27.7292C95.7052 28.3502 96.086 28.7617 96.9443 28.7617C97.9972 28.7916 98.7962 28.2155 98.7962 27.2729H98.766Z" fill="#181B1D"/>
<path d="M102.731 21.707H105.083V23.0088C105.34 22.5463 105.717 22.1625 106.175 21.8989C106.633 21.6353 107.154 21.5017 107.681 21.5125C108.185 21.4721 108.689 21.596 109.117 21.8656C109.544 22.1352 109.874 22.5362 110.055 23.0088C110.369 22.5395 110.795 22.1566 111.295 21.8952C111.794 21.6337 112.351 21.5022 112.915 21.5125C114.49 21.5125 115.707 22.5075 115.707 24.7669V30.2207H113.37V25.0586C113.37 23.9664 112.885 23.4801 112.034 23.4801C111.808 23.4702 111.581 23.5094 111.372 23.595C111.162 23.6806 110.973 23.8106 110.817 23.976C110.662 24.1415 110.544 24.3386 110.473 24.5538C110.4 24.7691 110.375 24.9974 110.399 25.2232V30.2506H108.055V25.0586C108.055 23.9664 107.555 23.4801 106.726 23.4801C106.499 23.4691 106.272 23.5075 106.061 23.5926C105.85 23.6777 105.661 23.8075 105.504 23.9731C105.348 24.1387 105.23 24.3362 105.157 24.5519C105.085 24.7677 105.059 24.9968 105.083 25.2232V30.2506H102.731V21.707Z" fill="#181B1D"/>
<path d="M117.319 21.707H119.679V23.0461C119.96 22.5778 120.357 22.1903 120.832 21.9215C121.307 21.6528 121.844 21.5118 122.389 21.5125C124.472 21.5125 126.121 23.0611 126.121 25.8741V26.0088C126.121 28.8217 124.531 30.4003 122.389 30.4003C121.844 30.4226 121.303 30.2951 120.825 30.0313C120.348 29.7675 119.951 29.3776 119.679 28.904V33.1534H117.319V21.707ZM123.703 25.8965C123.703 24.1683 122.859 23.323 121.672 23.323C120.485 23.323 119.597 24.1833 119.597 25.8965V26.0237C119.597 27.7294 120.41 28.5599 121.695 28.5599C122.979 28.5599 123.703 27.692 123.703 26.0536V25.8965Z" fill="#181B1D"/>
<path fill-rule="evenodd" clip-rule="evenodd" d="M31.7318 14.5511C25.1071 14.5511 21.6522 20.1741 19.7179 25.6699C19.484 26.3343 18.757 26.6829 18.094 26.4486C17.431 26.2142 17.0832 25.4857 17.317 24.8214C19.2797 19.2449 23.2906 12 31.7318 12C36.144 12 39.3021 14.925 41.3446 18.4391C43.3924 21.9624 44.4843 26.3249 44.7303 29.8474C44.748 30.1005 44.6899 30.3532 44.5635 30.5732C43.3806 32.6307 41.4128 33.9716 39.1696 34.7928C36.932 35.6121 34.3401 35.9468 31.742 35.9476C29.5347 35.9821 27.3458 35.5394 25.3245 34.6497C23.3001 33.7585 21.4915 32.4399 20.0223 30.7839C19.7098 30.4316 19.6166 29.9353 19.78 29.4933L20.9737 29.9364C19.78 29.4933 19.78 29.4933 19.78 29.4933L19.7828 29.4858L19.789 29.4692C19.7943 29.4551 19.8018 29.4351 19.8115 29.4096C19.831 29.3586 19.8592 29.2855 19.8955 29.1935C19.968 29.0095 20.0733 28.749 20.2064 28.4372C20.4715 27.8165 20.8523 26.9799 21.3098 26.1353C21.7612 25.3018 22.3163 24.4057 22.9406 23.6997C23.5097 23.0561 24.3944 22.272 25.5266 22.2644L25.5352 22.2643C26.3353 22.2643 26.9925 22.6314 27.4656 22.9843C27.9424 23.34 28.3755 23.7921 28.7225 24.1601C28.7623 24.2023 28.801 24.2434 28.8387 24.2834C29.1619 24.6268 29.409 24.8894 29.6439 25.086C29.6703 25.1081 29.6945 25.1277 29.7166 25.1448C29.793 25.0666 29.8841 24.9641 29.989 24.8338C30.3621 24.3703 30.7811 23.7175 31.1866 23.0185C31.5868 22.3287 31.951 21.6339 32.2166 21.1084C32.3489 20.8465 32.4557 20.6287 32.529 20.4772C32.5656 20.4015 32.5938 20.3424 32.6126 20.3028L32.6337 20.2584L32.6397 20.2456C32.9381 19.6078 33.6961 19.3328 34.3326 19.6318C34.9692 19.9308 35.2433 20.6903 34.9449 21.3282L33.8937 20.8344C34.9449 21.3282 34.9449 21.3282 34.9449 21.3282L34.9422 21.334L34.9356 21.3481L34.9111 21.3998C34.8899 21.4444 34.8591 21.5088 34.8197 21.5902C34.741 21.7529 34.6277 21.984 34.4879 22.2607C34.2091 22.8125 33.8207 23.5541 33.3875 24.3007C32.9597 25.0381 32.4646 25.8217 31.9705 26.4355C31.7255 26.7399 31.4477 27.0444 31.1473 27.2838C30.8818 27.4955 30.4135 27.808 29.8131 27.808C29.0193 27.808 28.3937 27.3638 28.0114 27.0436C27.6511 26.7419 27.2911 26.3584 26.9887 26.0363C26.9488 25.9937 26.9099 25.9523 26.8722 25.9123C26.5137 25.5322 26.2207 25.236 25.9454 25.0307C25.7041 24.8507 25.5809 24.821 25.5455 24.8163C25.5446 24.8167 25.5429 24.8173 25.5407 24.8181C25.5018 24.8318 25.268 24.9144 24.8461 25.3916C24.4085 25.8864 23.961 26.5885 23.5473 27.3522C23.1397 28.1049 22.793 28.8646 22.5469 29.4409C22.5152 29.5152 22.4853 29.5861 22.4572 29.6534C23.5775 30.772 24.8964 31.6748 26.3484 32.314C28.0374 33.0575 29.8666 33.4268 31.7111 33.3967C31.718 33.3966 31.7249 33.3965 31.7318 33.3965C34.1398 33.3965 36.4192 33.0838 38.296 32.3966C40.0227 31.7645 41.3398 30.8431 42.1586 29.6199C41.8811 26.4852 40.8847 22.7166 39.1447 19.7231C37.3237 16.59 34.8526 14.5511 31.7318 14.5511ZM29.5074 25.326C29.5074 25.326 29.5129 25.3219 29.5236 25.3164C29.5126 25.3238 29.5074 25.326 29.5074 25.326Z" fill="#181B1D"/>
</svg>
