<svg width="85" height="57" viewBox="0 0 85 57" fill="none" xmlns="http://www.w3.org/2000/svg">
<path d="M11.4798 27.3988L13.4321 25.4424L15.3855 27.3998L16.5215 26.2614L13.4321 23.1655L10.3438 26.2604L11.4798 27.3988Z" fill="#181B1D"/>
<path d="M10.6774 28.202L9.54139 27.0637L8.40527 28.2021L9.54132 29.3403L10.6774 28.202Z" fill="#181B1D"/>
<path d="M11.4814 29.0062L13.4338 30.9625L15.387 29.0052L16.5237 30.143L16.5232 30.1436L13.4338 33.2394L10.3438 30.143L11.4814 29.0062Z" fill="#181B1D"/>
<path d="M17.3216 29.3399L18.4577 28.2016L17.3217 27.0632L16.1855 28.2016L17.3216 29.3399Z" fill="#181B1D"/>
<path d="M14.583 28.2015L13.4307 27.0463L12.2773 28.202L12.279 28.2037L13.4307 29.3578L14.5834 28.2026L14.584 28.202L14.583 28.2015Z" fill="#181B1D"/>
<path d="M20.2266 25.6067H22.6973C23.3105 25.6067 23.7742 25.7644 24.0885 26.0798C24.3317 26.3241 24.4533 26.6268 24.4533 26.988V27.0033C24.4533 27.1559 24.4345 27.2908 24.3966 27.4077C24.3588 27.5249 24.3083 27.6303 24.2451 27.7244C24.1822 27.8186 24.109 27.9013 24.0258 27.9724C23.9425 28.0437 23.853 28.1048 23.7571 28.1556C24.0654 28.2727 24.308 28.4316 24.485 28.6326C24.6618 28.8336 24.7504 29.1122 24.7504 29.4683V29.4835C24.7504 29.7278 24.7035 29.9414 24.6097 30.1247C24.516 30.3077 24.3816 30.4604 24.2067 30.5826C24.0318 30.7047 23.8214 30.7962 23.5756 30.8573C23.3298 30.9183 23.0573 30.9488 22.7583 30.9488H20.2266V25.6067ZM22.4503 27.7664C22.7093 27.7664 22.915 27.722 23.0671 27.6329C23.2194 27.5439 23.2956 27.4001 23.2956 27.2017V27.1864C23.2956 27.0085 23.2295 26.8724 23.0976 26.7782C22.9655 26.684 22.7751 26.6369 22.5265 26.6369H21.3688V27.7664H22.4503ZM22.7625 29.9186C23.0215 29.9186 23.2245 29.8717 23.3718 29.7775C23.519 29.6833 23.5927 29.537 23.5927 29.3386V29.3234C23.5927 29.1453 23.5241 29.0042 23.3871 28.8998C23.25 28.7956 23.0291 28.7434 22.7244 28.7434H21.3688V29.9187L22.7625 29.9186Z" fill="#181B1D"/>
<path d="M26.2246 25.6067H27.3968V30.9489H26.2246V25.6067Z" fill="#181B1D"/>
<path d="M29.1748 25.6067H30.2561L32.7542 28.8961V25.6067H33.9118V30.9489H32.9142L30.3324 27.5529V30.9489H29.1748V25.6067Z" fill="#181B1D"/>
<path d="M37.4617 25.567H38.5431L40.828 30.9474H39.6018L39.1143 29.7492H36.8601L36.3726 30.9474H35.1768L37.4617 25.567ZM38.6955 28.7112L37.9871 26.9789L37.279 28.7112H38.6955Z" fill="#181B1D"/>
<path d="M42.0908 25.6067H43.1724L45.6703 28.8961V25.6067H46.8278V30.9489H45.8302L43.2484 27.5529V30.9489H42.0908V25.6067Z" fill="#181B1D"/>
<path d="M51.0506 31.0401C50.6594 31.0401 50.2965 30.9688 49.9614 30.8264C49.6262 30.6841 49.3369 30.4894 49.0932 30.2426C48.8494 29.9958 48.659 29.7045 48.5221 29.3687C48.3849 29.0329 48.3164 28.6742 48.3164 28.2926V28.2774C48.3164 27.8958 48.3849 27.5385 48.5221 27.2052C48.659 26.8719 48.8494 26.5793 49.0932 26.3275C49.3368 26.0757 49.6288 25.8772 49.9689 25.7322C50.309 25.5872 50.685 25.5148 51.0962 25.5148C51.3448 25.5148 51.572 25.5352 51.7776 25.5758C51.9832 25.6166 52.1698 25.6724 52.3375 25.7437C52.5051 25.8149 52.6598 25.9014 52.8022 26.0031C52.944 26.105 53.0761 26.2168 53.198 26.339L52.4518 27.2014C52.2434 27.0132 52.0316 26.8655 51.8158 26.7587C51.5999 26.6519 51.3576 26.5984 51.0885 26.5984C50.8651 26.5984 50.6581 26.6417 50.4679 26.7282C50.2775 26.8147 50.1137 26.9343 49.9765 27.0869C49.8396 27.2395 49.7329 27.4163 49.6567 27.6172C49.5806 27.8183 49.5426 28.0332 49.5426 28.2621V28.2774C49.5426 28.5062 49.5806 28.7226 49.6567 28.926C49.7329 29.1296 49.8381 29.3076 49.9728 29.4602C50.1072 29.6128 50.2698 29.7337 50.4601 29.8228C50.6506 29.9119 50.86 29.9563 51.0885 29.9563C51.3933 29.9563 51.6506 29.9004 51.8614 29.7884C52.0721 29.6766 52.2817 29.524 52.4898 29.3305L53.2361 30.086C53.099 30.2337 52.9567 30.366 52.8097 30.4829C52.6624 30.6 52.5012 30.7004 52.3259 30.7844C52.1509 30.8683 51.9591 30.932 51.7511 30.9752C51.5427 31.0183 51.3093 31.0401 51.0506 31.0401Z" fill="#181B1D"/>
<path d="M54.6191 25.6067H58.6327V26.6523H55.7768V27.736H58.2901V28.7816H55.7768V29.9035H58.671V30.9489H54.6191V25.6067Z" fill="#181B1D"/>
<path d="M62.2764 31.0395V25.5942H64.1124C64.5387 25.5942 64.8872 25.6714 65.1578 25.8255C65.4302 25.978 65.6318 26.1845 65.7627 26.445C65.8936 26.7056 65.959 26.9963 65.959 27.3171C65.959 27.638 65.8936 27.9295 65.7627 28.1919C65.6336 28.4542 65.4337 28.6634 65.1631 28.8194C64.8925 28.9736 64.5458 29.0507 64.123 29.0507H62.807V28.4657H64.1018C64.3936 28.4657 64.628 28.4152 64.8049 28.3142C64.9818 28.2131 65.11 28.0767 65.1896 27.9048C65.271 27.731 65.3117 27.5352 65.3117 27.3171C65.3117 27.0992 65.271 26.9041 65.1896 26.7322C65.11 26.5603 64.9809 26.4256 64.8023 26.3281C64.6236 26.2288 64.3866 26.1792 64.0911 26.1792H62.9344V31.0395H62.2764Z" fill="#181B1D"/>
<path d="M66.6879 31.0395H65.998L67.9933 25.5942H68.6725L70.6678 31.0395H69.9779L68.3541 26.4557H68.3117L66.6879 31.0395ZM66.9426 28.9124H69.7232V29.4973H66.9426V28.9124Z" fill="#181B1D"/>
<path d="M70.4951 25.5942H71.2489L72.7557 28.1361H72.8195L74.3263 25.5942H75.0801L73.1165 28.7954V31.0395H72.4587V28.7954L70.4951 25.5942Z" fill="#181B1D"/>
</svg>
