<svg width="174" height="48" viewBox="0 0 174 48" fill="none" xmlns="http://www.w3.org/2000/svg">
<path d="M96.2723 21.4701C97.8118 21.4701 99.2694 22.4137 99.577 24.4525H92.722C93.0089 22.6634 94.3434 21.4701 96.2723 21.4701ZM99.3581 27.4688C98.8345 28.2866 97.8224 28.9157 96.4371 28.9157C94.5278 28.9157 93.0702 27.8671 92.722 26.0157H101.322C101.364 25.7504 101.385 25.4822 101.385 25.2137C101.385 22.3344 99.3763 19.7836 96.2738 19.7836C93.0721 19.7836 90.8965 22.1489 90.8965 25.1935C90.8965 28.2759 93.0937 30.6034 96.3969 30.6034C98.4494 30.6034 100.01 29.6775 100.912 28.2759L99.3581 27.4688Z" fill="#181B1D"/>
<path d="M90.0533 15.3207H88.2676V30.3358H90.0533V15.3207Z" fill="#181B1D"/>
<path d="M111.318 24.0211V30.335H109.533V24.1237C109.533 22.4371 108.569 21.491 106.988 21.491C105.346 21.491 104.012 22.4579 104.012 24.8848V30.335H102.226V20.0523H104.012V21.5332C104.771 20.3197 105.9 19.785 107.339 19.785C109.74 19.785 111.32 21.3891 111.32 24.0224" fill="#181B1D"/>
<path d="M121.166 25.1932C121.166 23.0952 119.585 21.5113 117.512 21.5113C115.46 21.5113 113.879 23.0952 113.879 25.1932C113.879 27.2911 115.46 28.8751 117.512 28.8751C119.584 28.8751 121.166 27.2911 121.166 25.1932ZM122.951 15.3207V30.3358H121.166V28.5662C120.345 29.8243 119.032 30.6031 117.287 30.6031C114.433 30.6031 112.094 28.2372 112.094 25.1932C112.094 22.1492 114.433 19.7832 117.287 19.7832C119.031 19.7832 120.345 20.5645 121.166 21.8195V15.3207H122.951Z" fill="#181B1D"/>
<path d="M126.178 15.3207H124.393V30.3358H126.178V15.3207Z" fill="#181B1D"/>
<path d="M85.084 25.1931C85.084 23.0951 83.5038 21.5111 81.4302 21.5111C79.3781 21.5111 77.7974 23.0951 77.7974 25.1931C77.7974 27.291 79.3781 28.875 81.4302 28.875C83.5019 28.875 85.084 27.291 85.084 25.1931ZM86.8697 20.0524V30.335H85.084V28.5661C84.2625 29.8242 82.9496 30.603 81.2051 30.603C78.3516 30.603 76.0117 28.2371 76.0117 25.1931C76.0117 22.149 78.3516 19.7831 81.2051 19.7831C82.9496 19.7831 84.2625 20.5644 85.084 21.8194V20.0524H86.8697Z" fill="#181B1D"/>
<path d="M73.3642 28.3556C72.4502 28.6936 71.4635 28.7849 70.5031 28.6203C69.5427 28.4556 68.6426 28.0408 67.8925 27.4176C67.1424 26.7943 66.569 25.9844 66.2299 25.0691C65.8913 24.1538 65.7978 23.1652 65.9602 22.2026C66.1231 21.2399 66.535 20.3369 67.1553 19.5842C67.7761 18.8314 68.5832 18.2554 69.4957 17.9138C70.4087 17.5722 71.395 17.4771 72.3559 17.638C73.3172 17.7988 74.2187 18.2101 74.9712 18.8304C75.285 19.0898 75.569 19.3835 75.8176 19.706L77.3624 18.5737C76.4623 17.3946 75.2332 16.5099 73.8307 16.0316C72.4287 15.5533 70.916 15.503 69.4852 15.8871C68.0539 16.2712 66.7693 17.0723 65.7931 18.1889C64.8169 19.3056 64.1937 20.6875 64.0021 22.1595C63.8109 23.6315 64.0595 25.1274 64.7177 26.4574C65.3754 27.7875 66.4124 28.8919 67.6976 29.6307C68.9823 30.3694 70.4571 30.7093 71.9353 30.6072C73.413 30.505 74.8275 29.9655 75.9992 29.0571L74.9707 27.4278C74.4903 27.8243 73.9476 28.1378 73.3642 28.3556Z" fill="#181B1D"/>
<path d="M134.797 20.0522V25.8887C134.797 27.7759 133.702 28.9711 132.03 28.9711C130.358 28.9711 129.147 27.7759 129.147 25.8887V20.0522H127.34V25.7138C127.34 28.6805 129.184 30.6067 132.03 30.6067C134.49 30.6067 134.875 29.0466 134.875 29.0076V31.1074C134.875 33.1877 133.971 34.3628 132.088 34.3628C131.415 34.3661 130.763 34.1242 130.255 33.6821C129.747 33.24 129.416 32.6279 129.325 31.9598L127.71 32.5259C127.941 33.5157 128.5 34.398 129.296 35.0288C130.091 35.6597 131.076 36.0021 132.091 36.0002C135.012 36.0002 136.61 34.0734 136.61 31.1074V20.0522H134.797Z" fill="#181B1D"/>
<path d="M51.8969 26.0426C51.2105 26.6527 50.3535 27.412 48.8001 27.412H47.8709C46.7466 27.412 45.724 27.0025 44.992 26.2602C44.277 25.5349 43.8834 24.5422 43.8834 23.4647V22.1908C43.8834 21.1132 44.277 20.1206 44.992 19.3952C45.724 18.653 46.7466 18.244 47.8709 18.244H48.8001C50.3554 18.244 51.2105 19.0027 51.8969 19.6129C52.6091 20.242 53.2237 20.7918 54.8628 20.7918C55.1129 20.7917 55.3624 20.7717 55.6091 20.732L55.6039 20.7175C55.5057 20.4732 55.3902 20.2361 55.259 20.008L54.1635 18.1063C53.6697 17.2491 52.9593 16.5372 52.1038 16.0422C51.2478 15.5473 50.2774 15.2868 49.2897 15.2869H47.0981C46.1103 15.2868 45.1398 15.5473 44.2842 16.0422C43.4287 16.5372 42.7182 17.2491 42.2242 18.1063L41.1288 20.008C40.635 20.8653 40.375 21.8378 40.375 22.8277C40.375 23.8177 40.635 24.7901 41.1288 25.6475L42.2242 27.5492C42.7182 28.4064 43.4287 29.1183 44.2842 29.6132C45.1398 30.1081 46.1103 30.3687 47.0981 30.3686H49.2897C50.2774 30.3687 51.2478 30.1081 52.1038 29.6132C52.9593 29.1183 53.6697 28.4064 54.1635 27.5492L55.259 25.6506C55.3902 25.4225 55.5057 25.1854 55.6039 24.9411L55.6091 24.9272C55.3624 24.8861 55.1129 24.8651 54.8628 24.8643C53.2237 24.8643 52.6091 25.411 51.8969 26.0432" fill="#181B1D"/>
<path d="M48.7999 19.3988H47.8708C46.1595 19.3988 45.0352 20.6236 45.0352 22.1912V23.465C45.0352 25.0327 46.1595 26.2575 47.8708 26.2575H48.7999C51.2931 26.2575 51.0976 23.7097 54.8626 23.7097C55.2195 23.7093 55.5754 23.7422 55.926 23.8079C56.0405 23.1597 56.0405 22.4965 55.926 21.8483C55.5754 21.9137 55.2195 21.9466 54.8626 21.9465C51.0962 21.9465 51.2931 19.3988 48.7999 19.3988Z" fill="#181B1D"/>
<path d="M58.0902 24.7389C57.4493 24.2683 56.7097 23.9497 55.9275 23.8072C55.9275 23.8141 55.9275 23.8198 55.9275 23.8261C55.8604 24.2017 55.755 24.5695 55.6137 24.9238C56.2599 25.024 56.8725 25.277 57.4018 25.6617C57.4018 25.6667 57.3985 25.673 57.3966 25.6787C56.7159 27.8881 55.2664 29.7794 53.3121 31.0092C51.3583 32.2389 49.0284 32.7255 46.7469 32.3805C44.4652 32.0354 42.3826 30.8817 40.8776 29.1289C39.3725 27.3761 38.5448 25.1404 38.5448 22.8281C38.5448 20.5157 39.3725 18.2801 40.8776 16.5273C42.3826 14.7745 44.4652 13.6207 46.7469 13.2757C49.0284 12.9307 51.3583 13.4173 53.3121 14.647C55.2664 15.8767 56.7159 17.7681 57.3966 19.9775C57.3966 19.9832 57.3999 19.9895 57.4018 19.9945C56.8725 20.3792 56.2599 20.632 55.6137 20.7317C55.755 21.0865 55.8599 21.4548 55.9275 21.8307C55.9275 21.8366 55.9275 21.8425 55.9275 21.8483C56.7097 21.7061 57.4493 21.3877 58.0902 20.9173C58.7066 20.46 58.5874 19.9435 58.494 19.6378C57.7319 17.1606 56.108 15.0397 53.9176 13.6603C51.7276 12.2809 49.1161 11.7347 46.5581 12.1209C44.0001 12.5071 41.6653 13.8 39.9778 15.7648C38.2904 17.7296 37.3623 20.2358 37.3623 22.8281C37.3623 25.4203 38.2904 27.9265 39.9778 29.8913C41.6653 31.8562 44.0001 33.1491 46.5581 33.5353C49.1161 33.9215 51.7276 33.3753 53.9176 31.9959C56.108 30.6165 57.7319 28.4955 58.494 26.0184C58.5874 25.7126 58.7066 25.1962 58.0902 24.7389Z" fill="#181B1D"/>
<path d="M55.6086 20.732C55.362 20.7731 55.1124 20.7941 54.8624 20.7949C53.2232 20.7949 52.6087 20.2482 51.8969 19.616C51.21 19.0058 50.3549 18.2466 48.7996 18.2466H47.8703C46.7454 18.2466 45.7234 18.6561 44.9914 19.3984C44.2764 20.1237 43.8828 21.1164 43.8828 22.194V23.4678C43.8828 24.5454 44.2764 25.538 44.9914 26.2634C45.7234 27.0056 46.7454 27.4145 47.8703 27.4145H48.7996C50.3549 27.4145 51.21 26.6559 51.8969 26.0457C52.6087 25.4166 53.2232 24.8668 54.8624 24.8668C55.1124 24.8669 55.362 24.8869 55.6086 24.9266C55.7504 24.5724 55.8558 24.2045 55.9224 23.8289C55.9229 23.8226 55.9229 23.8163 55.9224 23.81C55.5718 23.7448 55.2159 23.7122 54.859 23.7125C51.0926 23.7125 51.29 26.2608 48.7963 26.2608H47.8672C46.1559 26.2608 45.0316 25.0354 45.0316 23.4678V22.1914C45.0316 20.6238 46.1559 19.399 47.8672 19.399H48.7963C51.29 19.399 51.094 21.9461 54.859 21.9461C55.2159 21.9467 55.5718 21.9141 55.9224 21.8486C55.9224 21.8429 55.9224 21.8373 55.9224 21.831C55.8553 21.455 55.7499 21.0868 55.6086 20.732Z" fill="#181B1D"/>
<path d="M55.6086 20.732C55.362 20.7731 55.1124 20.7941 54.8624 20.7949C53.2232 20.7949 52.6087 20.2482 51.8969 19.616C51.21 19.0058 50.3549 18.2466 48.7996 18.2466H47.8703C46.7454 18.2466 45.7234 18.6561 44.9914 19.3984C44.2764 20.1237 43.8828 21.1164 43.8828 22.194V23.4678C43.8828 24.5454 44.2764 25.538 44.9914 26.2634C45.7234 27.0056 46.7454 27.4145 47.8703 27.4145H48.7996C50.3549 27.4145 51.21 26.6559 51.8969 26.0457C52.6087 25.4166 53.2232 24.8668 54.8624 24.8668C55.1124 24.8669 55.362 24.8869 55.6086 24.9266C55.7504 24.5724 55.8558 24.2045 55.9224 23.8289C55.9229 23.8226 55.9229 23.8163 55.9224 23.81C55.5718 23.7448 55.2159 23.7122 54.859 23.7125C51.0926 23.7125 51.29 26.2608 48.7963 26.2608H47.8672C46.1559 26.2608 45.0316 25.0354 45.0316 23.4678V22.1914C45.0316 20.6238 46.1559 19.399 47.8672 19.399H48.7963C51.29 19.399 51.094 21.9461 54.859 21.9461C55.2159 21.9467 55.5718 21.9141 55.9224 21.8486C55.9224 21.8429 55.9224 21.8373 55.9224 21.831C55.8553 21.455 55.7499 21.0868 55.6086 20.732Z" fill="#181B1D"/>
</svg>
