<svg width="74" height="48" viewBox="0 0 74 48" fill="none" xmlns="http://www.w3.org/2000/svg">
<g clip-path="url(#clip0_82_11317)">
<g clip-path="url(#clip1_82_11317)">
<mask id="mask0_82_11317" style="mask-type:luminance" maskUnits="userSpaceOnUse" x="0" y="0" width="73" height="49">
<path d="M73 0H0V48.6667H73V0Z" fill="white"/>
</mask>
<g mask="url(#mask0_82_11317)">
<path d="M32.8496 48.7913L72.9783 37.1083V43.7117C72.9783 46.5171 70.7044 48.7913 67.8987 48.7913H32.8496Z" fill="#181B1D"/>
<path fill-rule="evenodd" clip-rule="evenodd" d="M62.436 19.692C64.6437 19.692 65.8579 20.6744 65.8579 22.5302C65.968 23.9493 64.9746 25.1502 63.6503 25.3685L66.6305 29.4075H64.3121L61.7736 25.4776H61.5527V29.4075H59.6762V19.692H62.436ZM61.5527 24.1677H62.1045C63.3187 24.1677 63.8711 23.6219 63.8711 22.6393C63.8711 21.7661 63.3187 21.2202 62.1045 21.2202H61.5527V24.1677ZM53.1635 29.4075H58.462V27.7701H55.04V25.1501H58.3516V23.5127H55.04V21.3294H58.462V19.6919H53.1635V29.4075ZM47.6443 26.2418L45.1054 19.6919H43.1185L47.2027 29.6259H48.1962L52.2805 19.6919H50.2935L47.6443 26.2418ZM25.2361 24.6043C25.2361 27.3334 27.4438 29.6259 30.2034 29.6259C31.0865 29.6259 31.8592 29.4075 32.6319 29.0801V26.8968C32.08 27.5517 31.3072 27.9884 30.4242 27.9884C28.658 27.9884 27.223 26.6784 27.223 24.9318V24.7135C27.1127 22.9669 28.5477 21.4385 30.3138 21.3294C31.1969 21.3294 32.08 21.7661 32.6319 22.421V20.2378C31.9696 19.8011 31.0865 19.6919 30.3138 19.6919C27.4438 19.4736 25.2361 21.7661 25.2361 24.6043ZM21.8141 23.4035C20.7103 22.9669 20.3792 22.7485 20.3792 22.2027C20.4896 21.5477 21.0414 21.0019 21.7038 21.1111C22.2557 21.1111 22.8076 21.4385 23.2491 21.8752L24.2426 20.5652C23.4699 19.9102 22.4764 19.4736 21.483 19.4736C19.9376 19.3644 18.613 20.5652 18.5026 22.0935V22.2027C18.5026 23.5127 19.0545 24.2768 20.8207 24.8226C21.2622 24.9318 21.7038 25.1501 22.1453 25.3684C22.4764 25.5868 22.6973 25.9143 22.6973 26.351C22.6973 27.1151 22.0349 27.7701 21.3726 27.7701H21.2622C20.3791 27.7701 19.6064 27.2243 19.2753 26.4601L18.0611 27.6609C18.7234 28.8617 20.048 29.5167 21.3726 29.5167C23.1388 29.6259 24.5738 28.3159 24.6841 26.5693V26.2418C24.5738 24.9318 24.0218 24.2768 21.8141 23.4035ZM15.4118 29.4075H17.2884V19.6919H15.4118V29.4075ZM6.69141 19.692H10.0029C12.6522 19.8011 14.7495 21.9844 14.6392 24.6043C14.6392 26.0234 13.9768 27.3334 12.873 28.3159C11.8795 29.0801 10.6653 29.5167 9.45105 29.4075H6.69141V19.692ZM9.11987 27.7701C10.0029 27.8793 10.9964 27.5517 11.6587 27.006C12.321 26.351 12.6522 25.4776 12.6522 24.4952C12.6522 23.6219 12.321 22.7485 11.6587 22.0935C10.9964 21.5477 10.0029 21.2202 9.11987 21.3294H8.56793V27.7701H9.11987Z" fill="#181B1D"/>
<path fill-rule="evenodd" clip-rule="evenodd" d="M38.2613 19.4668C35.5016 19.4668 33.1836 21.6501 33.1836 24.4883C33.1836 27.2175 35.3913 29.5099 38.2613 29.6191C41.1313 29.7282 43.339 27.4358 43.4494 24.5975C43.339 21.7592 41.1313 19.4668 38.2613 19.4668Z" fill="#181B1D"/>
</g>
</g>
</g>
<defs>
<clipPath id="clip0_82_11317">
<rect width="73.0393" height="47.8745" fill="white"/>
</clipPath>
<clipPath id="clip1_82_11317">
<rect width="73" height="48.6667" fill="white"/>
</clipPath>
</defs>
</svg>
