<svg width="200" height="215" viewBox="0 0 200 215" fill="none" xmlns="http://www.w3.org/2000/svg">
<path d="M100 85.8648V214.662L0 171.469L0.47707 43.1375L100 85.8648Z" fill="#09325E"/>
<path d="M100.001 85.9407V214.738L199.514 173.037V43.5476L100.001 85.9407Z" fill="#3173BD"/>
<path d="M100 85.8642L200 43.9792L100.785 0L0 42.9321L100 85.8642Z" fill="#3173BD"/>
<path d="M37.6963 26.8744L137.315 70.2347L138.22 101.833L166.092 90.3321L165.249 58.5345L62.6834 16.2305L37.6963 26.8744Z" fill="#09325E"/>
<path d="M131.643 132.151C133.222 132.151 134.502 129.815 134.502 126.933C134.502 124.051 133.222 121.715 131.643 121.715C130.064 121.715 128.784 124.051 128.784 126.933C128.784 129.815 130.064 132.151 131.643 132.151Z" fill="#FFFEFE"/>
<path d="M177.698 113.386C179.277 113.386 180.557 111.05 180.557 108.168C180.557 105.287 179.277 102.95 177.698 102.95C176.119 102.95 174.839 105.287 174.839 108.168C174.839 111.05 176.119 113.386 177.698 113.386Z" fill="#FFFEFE"/>
<path d="M148.208 159.698L146.352 158.977C150.465 148.388 155.622 142.555 161.682 141.639C167.479 140.763 172.361 144.756 174.133 146.99L172.573 148.227C171.347 146.682 167.057 142.841 161.98 143.608C156.752 144.398 151.989 149.962 148.208 159.698Z" fill="#FFFEFE"/>
</svg>
