<svg width="1425" height="786" viewBox="0 0 1425 786" fill="none" xmlns="http://www.w3.org/2000/svg">
<path d="M-77 118.201C144.567 215.634 264 344.135 332.881 449.258C390.3 536.9 389.281 572.751 450.252 638.139C582.564 780.027 836.023 877.873 958.864 755.939C1019.37 695.874 996.991 619.756 1025.93 475.659C1051.97 346.034 1119.3 167.754 1307.25 -26" stroke="url(#paint0_linear_796_20415)" stroke-width="1.16578" stroke-miterlimit="10"/>
<path d="M-76.5566 149.637C138.954 233.372 257.192 354.261 326.037 452.642C383.964 535.446 388.674 568.557 453.436 632.821C589.292 767.633 827.322 861.49 950.334 747.717C1013.7 689.119 999.284 614.303 1033.2 470.629C1063.06 344.139 1131.75 168.908 1316.47 -23.108" stroke="url(#paint1_linear_796_20415)" stroke-width="1.16578" stroke-miterlimit="10"/>
<path d="M-76.1133 181.067C133.337 251.11 250.473 364.417 319.206 456.026C377.76 534.069 387.963 564.368 456.632 627.503C595.731 755.395 819.001 845.323 941.825 739.499C1008.18 682.325 1001.49 608.925 1040.48 465.603C1074.03 342.28 1144.22 170.075 1325.71 -20.1946" stroke="url(#paint2_linear_796_20415)" stroke-width="1.16578" stroke-miterlimit="10"/>
<path d="M-75.6709 212.502C127.719 268.853 243.868 374.603 312.373 459.436C371.63 532.776 387.135 560.209 459.843 622.182C601.911 743.332 811.038 829.401 933.323 731.277C1002.8 675.531 1003.59 603.607 1047.77 460.573C1084.87 340.446 1156.71 171.242 1334.94 -17.2939" stroke="url(#paint3_linear_796_20415)" stroke-width="1.16578" stroke-miterlimit="10"/>
<path d="M-75.2256 243.933C122.124 286.583 237.402 384.79 305.544 462.798C365.608 531.552 386.242 556.089 463.016 616.864C607.805 731.446 803.365 813.74 924.787 723.054C997.535 668.724 1005.54 598.324 1055.02 455.543C1095.55 338.622 1169.16 172.405 1344.15 -14.3717" stroke="url(#paint4_linear_796_20415)" stroke-width="1.16578" stroke-miterlimit="10"/>
<path d="M-74.7822 275.364C116.491 304.321 231.082 394.981 298.713 466.182C359.711 530.402 385.203 552.03 466.212 611.542C613.502 719.757 796.006 798.345 916.27 714.836C992.418 661.956 1007.35 593.068 1062.3 450.512C1106.11 336.792 1181.63 173.572 1353.38 -11.493" stroke="url(#paint5_linear_796_20415)" stroke-width="1.16578" stroke-miterlimit="10"/>
<path d="M-74.3398 306.795C110.873 322.037 224.937 405.128 291.88 469.566C353.949 529.314 384.095 548.041 469.403 606.225C619.014 708.26 788.91 783.229 907.752 706.614C987.423 655.25 1009.09 587.811 1069.57 445.487C1116.55 334.946 1194.11 174.74 1362.6 -8.58801" stroke="url(#paint6_linear_796_20415)" stroke-width="1.16578" stroke-miterlimit="10"/>
<path d="M-73.8809 338.23C105.272 339.793 219 415.228 285.064 472.95C348.364 528.26 382.94 544.138 472.611 600.907C624.378 696.959 782.071 768.386 899.25 698.391C982.569 648.626 1010.68 582.546 1076.86 440.457C1126.86 333.078 1206.56 175.92 1371.83 -5.6875" stroke="url(#paint7_linear_796_20415)" stroke-width="1.16578" stroke-miterlimit="10"/>
<path d="M-73.4531 369.66C99.6396 357.531 213.24 425.231 278.217 476.338C342.935 527.223 381.654 540.358 475.791 595.585C629.596 685.849 775.411 753.823 890.717 690.173C977.807 642.111 1012.11 577.237 1084.12 435.427C1137.06 331.17 1219.03 177.069 1381.08 -2.78711" stroke="url(#paint8_linear_796_20415)" stroke-width="1.16578" stroke-miterlimit="10"/>
<path d="M-73.0098 401.078C94.0266 375.257 207.707 435.091 271.386 479.709C337.674 526.152 380.336 536.622 478.983 590.255C634.698 674.909 768.919 739.512 882.2 681.938C973.145 635.717 1013.43 571.863 1091.39 430.384C1147.16 329.202 1231.51 178.224 1390.28 0.100464" stroke="url(#paint9_linear_796_20415)" stroke-width="1.16578" stroke-miterlimit="10"/>
<path d="M-72.5654 432.526C88.4306 393.008 202.39 444.812 264.559 483.106C332.625 525.037 378.97 533.046 482.18 584.945C639.732 664.173 762.58 725.493 873.684 673.733C968.591 629.515 1014.62 566.441 1098.67 425.366C1157.15 327.207 1243.97 179.404 1399.51 3.02246" stroke="url(#paint10_linear_796_20415)" stroke-width="1.16578" stroke-miterlimit="10"/>
<path d="M-72.1221 463.957C82.7936 410.742 197.277 454.31 257.728 486.49C327.767 523.778 377.576 529.579 485.372 579.628C644.706 653.595 756.356 711.709 865.166 665.51C964.125 623.497 1015.68 560.918 1105.95 420.34C1167.07 325.138 1256.44 180.566 1408.73 5.91858" stroke="url(#paint11_linear_796_20415)" stroke-width="1.16578" stroke-miterlimit="10"/>
<path d="M-71.6787 495.392C77.1767 428.48 192.339 463.565 250.897 489.878C323.093 522.319 376.114 526.23 488.567 574.31C649.639 643.177 750.212 698.169 856.653 657.288C959.722 617.7 1016.63 555.296 1113.22 415.31C1176.91 323.004 1268.91 181.734 1417.96 8.81921" stroke="url(#paint12_linear_796_20415)" stroke-width="1.16578" stroke-miterlimit="10"/>
<path d="M-71.2354 526.822C71.5637 446.218 187.549 472.549 244.065 493.262C318.583 520.573 374.644 523.007 491.751 568.988C654.537 632.904 744.115 684.834 848.128 649.07C955.404 612.16 1017.47 549.552 1120.49 410.28C1186.69 320.796 1281.38 182.888 1427.19 11.7327" stroke="url(#paint13_linear_796_20415)" stroke-width="1.16578" stroke-miterlimit="10"/>
<path d="M-70.792 558.253C65.9467 463.953 182.855 481.242 237.218 496.646C314.176 518.448 373.141 519.907 494.939 563.671C659.431 622.774 738.043 671.756 839.602 640.848C951.121 606.908 1018.2 543.681 1127.75 405.237C1196.39 318.501 1293.83 184.051 1436.4 14.6072" stroke="url(#paint14_linear_796_20415)" stroke-width="1.16578" stroke-miterlimit="10"/>
<path d="M-70.3486 589.688C60.3498 481.691 178.2 489.639 230.402 500.03C309.862 515.848 371.659 516.932 498.147 558.349C664.336 612.788 731.995 658.86 831.101 632.629C946.894 601.974 1018.86 537.688 1135.04 400.224C1206.1 316.154 1306.32 185.231 1445.64 17.5249" stroke="url(#paint15_linear_796_20415)" stroke-width="1.16578" stroke-miterlimit="10"/>
<path d="M-69.8857 621.119C54.7324 499.429 174.085 513.496 223.59 503.418C304.564 486.93 370.181 514.084 501.363 553.031C669.27 602.893 725.906 646.156 822.584 624.407C942.667 597.405 1019.43 531.517 1142.32 395.194C1215.75 313.728 1318.79 186.398 1454.87 20.443" stroke="url(#paint16_linear_796_20415)" stroke-width="1.16578" stroke-miterlimit="10"/>
<path d="M-69.4609 652.55C49.1008 517.167 169.876 518.592 216.74 506.802C298.88 486.142 368.664 511.353 504.536 547.714C674.221 593.138 719.747 633.64 814.068 616.185C938.43 593.199 1019.94 525.216 1149.59 390.155C1225.39 311.211 1331.26 187.552 1464.09 23.3174" stroke="url(#paint17_linear_796_20415)" stroke-width="1.16578" stroke-miterlimit="10"/>
<path d="M-69.0176 683.985C43.4839 534.901 165.114 523.186 209.909 510.186C293.527 485.924 367.174 508.745 507.732 542.414C679.198 583.465 713.511 621.267 805.55 607.989C934.159 589.431 1020.39 518.779 1156.87 385.156C1235.01 308.659 1343.73 188.741 1473.32 26.2484" stroke="url(#paint18_linear_796_20415)" stroke-width="1.16578" stroke-miterlimit="10"/>
<path d="M-68.5752 715.415C37.8659 552.639 158.357 520.743 203.081 513.57C291.173 499.472 365.707 506.245 510.927 537.087C684.227 573.875 707.166 609.02 797.036 599.757C929.82 586.056 1020.78 512.133 1164.15 380.104C1244.63 305.98 1356.2 189.895 1482.55 29.1268" stroke="url(#paint19_linear_796_20415)" stroke-width="1.16578" stroke-miterlimit="10"/>
<path d="M-68.1318 746.846C32.249 570.378 152.788 528.138 196.245 516.958C285.592 493.976 364.248 503.858 514.114 531.766C689.288 564.372 700.678 596.909 788.515 591.535C925.385 583.164 1021.15 505.391 1171.42 375.087C1254.25 303.258 1368.66 191.071 1491.77 32.0405" stroke="url(#paint20_linear_796_20415)" stroke-width="1.16578" stroke-miterlimit="10"/>
<path d="M-67.6885 778.281C26.636 588.116 146.84 535.541 189.414 520.342C279.5 488.167 362.818 501.576 517.31 526.439C694.41 554.939 694.038 584.893 780.001 583.308C920.823 580.695 1021.49 498.467 1178.7 370.052C1263.88 300.475 1381.13 192.225 1501 34.9324" stroke="url(#paint21_linear_796_20415)" stroke-width="1.16578" stroke-miterlimit="10"/>
<defs>
<linearGradient id="paint0_linear_796_20415" x1="615.127" y1="-26" x2="615.127" y2="811.241" gradientUnits="userSpaceOnUse">
<stop stop-color="#3173BD"/>
<stop offset="0.6" stop-color="#3173BD"/>
<stop offset="0.639436" stop-color="#09325E"/>
<stop offset="0.730783" stop-color="#09325E"/>
</linearGradient>
<linearGradient id="paint1_linear_796_20415" x1="619.957" y1="-23.108" x2="619.957" y2="798.637" gradientUnits="userSpaceOnUse">
<stop stop-color="#3173BD"/>
<stop offset="0.6" stop-color="#3173BD"/>
<stop offset="0.639436" stop-color="#09325E"/>
<stop offset="0.730783" stop-color="#09325E"/>
</linearGradient>
<linearGradient id="paint2_linear_796_20415" x1="624.801" y1="-20.1946" x2="624.801" y2="786.181" gradientUnits="userSpaceOnUse">
<stop stop-color="#3173BD"/>
<stop offset="0.6" stop-color="#3173BD"/>
<stop offset="0.639436" stop-color="#09325E"/>
<stop offset="0.730783" stop-color="#09325E"/>
</linearGradient>
<linearGradient id="paint3_linear_796_20415" x1="629.635" y1="-17.2939" x2="629.635" y2="773.888" gradientUnits="userSpaceOnUse">
<stop stop-color="#3173BD"/>
<stop offset="0.6" stop-color="#3173BD"/>
<stop offset="0.639436" stop-color="#09325E"/>
<stop offset="0.730783" stop-color="#09325E"/>
</linearGradient>
<linearGradient id="paint4_linear_796_20415" x1="634.461" y1="-14.3717" x2="634.461" y2="761.767" gradientUnits="userSpaceOnUse">
<stop stop-color="#3173BD"/>
<stop offset="0.6" stop-color="#3173BD"/>
<stop offset="0.639436" stop-color="#09325E"/>
<stop offset="0.730783" stop-color="#09325E"/>
</linearGradient>
<linearGradient id="paint5_linear_796_20415" x1="639.297" y1="-11.493" x2="639.297" y2="749.825" gradientUnits="userSpaceOnUse">
<stop stop-color="#3173BD"/>
<stop offset="0.6" stop-color="#3173BD"/>
<stop offset="0.639436" stop-color="#09325E"/>
<stop offset="0.730783" stop-color="#09325E"/>
</linearGradient>
<linearGradient id="paint6_linear_796_20415" x1="644.13" y1="-8.58801" x2="644.13" y2="738.066" gradientUnits="userSpaceOnUse">
<stop stop-color="#3173BD"/>
<stop offset="0.6" stop-color="#3173BD"/>
<stop offset="0.639436" stop-color="#09325E"/>
<stop offset="0.730783" stop-color="#09325E"/>
</linearGradient>
<linearGradient id="paint7_linear_796_20415" x1="648.973" y1="-5.6875" x2="648.973" y2="726.489" gradientUnits="userSpaceOnUse">
<stop stop-color="#3173BD"/>
<stop offset="0.6" stop-color="#3173BD"/>
<stop offset="0.639436" stop-color="#09325E"/>
<stop offset="0.730783" stop-color="#09325E"/>
</linearGradient>
<linearGradient id="paint8_linear_796_20415" x1="653.811" y1="-2.78711" x2="653.811" y2="715.098" gradientUnits="userSpaceOnUse">
<stop stop-color="#3173BD"/>
<stop offset="0.6" stop-color="#3173BD"/>
<stop offset="0.639436" stop-color="#09325E"/>
<stop offset="0.730783" stop-color="#09325E"/>
</linearGradient>
<linearGradient id="paint9_linear_796_20415" x1="658.635" y1="0.100464" x2="658.635" y2="703.87" gradientUnits="userSpaceOnUse">
<stop stop-color="#3173BD"/>
<stop offset="0.6" stop-color="#3173BD"/>
<stop offset="0.639436" stop-color="#09325E"/>
<stop offset="0.730783" stop-color="#09325E"/>
</linearGradient>
<linearGradient id="paint10_linear_796_20415" x1="663.472" y1="3.02246" x2="663.472" y2="692.849" gradientUnits="userSpaceOnUse">
<stop stop-color="#3173BD"/>
<stop offset="0.6" stop-color="#3173BD"/>
<stop offset="0.639436" stop-color="#09325E"/>
<stop offset="0.730783" stop-color="#09325E"/>
</linearGradient>
<linearGradient id="paint11_linear_796_20415" x1="668.306" y1="5.91858" x2="668.306" y2="681.984" gradientUnits="userSpaceOnUse">
<stop stop-color="#3173BD"/>
<stop offset="0.6" stop-color="#3173BD"/>
<stop offset="0.639436" stop-color="#09325E"/>
<stop offset="0.730783" stop-color="#09325E"/>
</linearGradient>
<linearGradient id="paint12_linear_796_20415" x1="673.142" y1="8.81921" x2="673.142" y2="671.291" gradientUnits="userSpaceOnUse">
<stop stop-color="#3173BD"/>
<stop offset="0.6" stop-color="#3173BD"/>
<stop offset="0.639436" stop-color="#09325E"/>
<stop offset="0.730783" stop-color="#09325E"/>
</linearGradient>
<linearGradient id="paint13_linear_796_20415" x1="677.975" y1="11.7327" x2="677.975" y2="660.755" gradientUnits="userSpaceOnUse">
<stop stop-color="#3173BD"/>
<stop offset="0.6" stop-color="#3173BD"/>
<stop offset="0.639436" stop-color="#09325E"/>
<stop offset="0.730783" stop-color="#09325E"/>
</linearGradient>
<linearGradient id="paint14_linear_796_20415" x1="682.803" y1="14.6072" x2="682.803" y2="650.399" gradientUnits="userSpaceOnUse">
<stop stop-color="#3173BD"/>
<stop offset="0.6" stop-color="#3173BD"/>
<stop offset="0.639436" stop-color="#09325E"/>
<stop offset="0.730783" stop-color="#09325E"/>
</linearGradient>
<linearGradient id="paint15_linear_796_20415" x1="687.645" y1="17.5249" x2="687.645" y2="640.203" gradientUnits="userSpaceOnUse">
<stop stop-color="#3173BD"/>
<stop offset="0.6" stop-color="#3173BD"/>
<stop offset="0.639436" stop-color="#09325E"/>
<stop offset="0.730783" stop-color="#09325E"/>
</linearGradient>
<linearGradient id="paint16_linear_796_20415" x1="692.49" y1="20.443" x2="692.49" y2="630.174" gradientUnits="userSpaceOnUse">
<stop stop-color="#3173BD"/>
<stop offset="0.6" stop-color="#3173BD"/>
<stop offset="0.639436" stop-color="#09325E"/>
<stop offset="0.730783" stop-color="#09325E"/>
</linearGradient>
<linearGradient id="paint17_linear_796_20415" x1="697.316" y1="23.3174" x2="697.316" y2="652.55" gradientUnits="userSpaceOnUse">
<stop stop-color="#3173BD"/>
<stop offset="0.6" stop-color="#3173BD"/>
<stop offset="0.639436" stop-color="#09325E"/>
<stop offset="0.730783" stop-color="#09325E"/>
</linearGradient>
<linearGradient id="paint18_linear_796_20415" x1="702.151" y1="26.2484" x2="702.151" y2="683.985" gradientUnits="userSpaceOnUse">
<stop stop-color="#3173BD"/>
<stop offset="0.6" stop-color="#3173BD"/>
<stop offset="0.639436" stop-color="#09325E"/>
<stop offset="0.730783" stop-color="#09325E"/>
</linearGradient>
<linearGradient id="paint19_linear_796_20415" x1="706.986" y1="29.1268" x2="706.986" y2="715.415" gradientUnits="userSpaceOnUse">
<stop stop-color="#3173BD"/>
<stop offset="0.6" stop-color="#3173BD"/>
<stop offset="0.639436" stop-color="#09325E"/>
<stop offset="0.730783" stop-color="#09325E"/>
</linearGradient>
<linearGradient id="paint20_linear_796_20415" x1="711.82" y1="32.0405" x2="711.82" y2="746.846" gradientUnits="userSpaceOnUse">
<stop stop-color="#3173BD"/>
<stop offset="0.6" stop-color="#3173BD"/>
<stop offset="0.639436" stop-color="#09325E"/>
<stop offset="0.730783" stop-color="#09325E"/>
</linearGradient>
<linearGradient id="paint21_linear_796_20415" x1="716.656" y1="34.9324" x2="716.656" y2="778.281" gradientUnits="userSpaceOnUse">
<stop stop-color="#3173BD"/>
<stop offset="0.6" stop-color="#3173BD"/>
<stop offset="0.639436" stop-color="#09325E"/>
<stop offset="0.730783" stop-color="#09325E"/>
</linearGradient>
</defs>
</svg>
