<svg width="18" height="18" viewBox="0 0 18 18" fill="none" xmlns="http://www.w3.org/2000/svg">
<path d="M0.843492 7.80467L8.71849 12.3047C8.8035 12.3533 8.89972 12.3788 8.99763 12.3788C9.09555 12.3788 9.19177 12.3533 9.27677 12.3047L17.1518 7.80467C17.238 7.75551 17.3097 7.6844 17.3596 7.59858C17.4094 7.51275 17.4357 7.41526 17.4357 7.31599C17.4357 7.21673 17.4094 7.11924 17.3596 7.03341C17.3097 6.94759 17.238 6.87648 17.1518 6.82732L9.27677 2.32732C9.19177 2.27873 9.09555 2.25317 8.99763 2.25317C8.89972 2.25317 8.8035 2.27873 8.71849 2.32732L0.843492 6.82732C0.757258 6.87648 0.685569 6.94759 0.635703 7.03341C0.585837 7.11924 0.55957 7.21673 0.55957 7.31599C0.55957 7.41526 0.585837 7.51275 0.635703 7.59858C0.685569 7.6844 0.757258 7.75551 0.843492 7.80467Z" fill="#3173BD"/>
<path d="M16.5937 9.63632L8.99992 13.9774L1.40617 9.63632C1.34177 9.59939 1.27072 9.5755 1.19708 9.56603C1.12345 9.55655 1.04867 9.56167 0.97701 9.58109C0.905353 9.60052 0.838223 9.63387 0.779454 9.67923C0.720685 9.7246 0.671427 9.7811 0.634493 9.8455C0.597558 9.90991 0.573671 9.98096 0.564195 10.0546C0.554718 10.1282 0.559838 10.203 0.579262 10.2747C0.598686 10.3463 0.632034 10.4135 0.677402 10.4722C0.722769 10.531 0.779268 10.5802 0.843672 10.6172L8.71867 15.1172C8.80368 15.1658 8.8999 15.1913 8.99781 15.1913C9.09573 15.1913 9.19195 15.1658 9.27695 15.1172L17.152 10.6172C17.2161 10.5805 17.2725 10.5316 17.3177 10.4732C17.363 10.4147 17.3963 10.348 17.4157 10.2767C17.4352 10.2054 17.4404 10.1309 17.4311 10.0576C17.4218 9.98431 17.3981 9.91354 17.3615 9.84937C17.3248 9.7852 17.2759 9.72887 17.2175 9.68361C17.159 9.63835 17.0923 9.60504 17.021 9.58559C16.9497 9.56613 16.8752 9.56091 16.8019 9.57022C16.7286 9.57952 16.6578 9.60318 16.5937 9.63984V9.63632Z" fill="#3173BD"/>
</svg>
